<svg id="Layer_1" data-name="Layer 1" xmlns="http://www.w3.org/2000/svg" viewBox="0 0 490.26 77.67"><defs><style>.cls-1{fill:#f4f4f4;}</style></defs><path class="cls-1" d="M338.22,129.72c-28.81,0-63.88-6.19-97.72-28.13-44-28.53-92.92-26.78-126.21-20.29A243.07,243.07,0,0,0,51.7,102.54,2,2,0,1,1,49.78,99a247.25,247.25,0,0,1,63.63-21.64c34.05-6.65,84.11-8.44,129.27,20.84,44,28.55,90.26,29.81,121.29,25.84,33.73-4.32,57.32-15.58,57.56-15.69a2,2,0,1,1,1.74,3.6c-.24.11-24.31,11.62-58.65,16A207.23,207.23,0,0,1,338.22,129.72Z" transform="translate(-48.74 -52.05)"/><path class="cls-1" d="M519.69,56.35c-12.13,0-26.07,6.36-26.65,6.63a2.15,2.15,0,1,0,1.79,3.9c.14-.07,13.68-6.24,24.86-6.24,10.94,0,15,2.63,15,4.29,0,8-67.18,34.33-81.54,34.33-2.42,0-8.88,0-11.91-.55a46,46,0,0,1,6.45-4,2.13,2.13,0,0,0,.8-3.1l-7.6-11.41,1.95-2,15.78,7.89a2.16,2.16,0,0,0,1.92,0l12.88-6.44a2.14,2.14,0,1,0-1.92-3.83l-11.92,6-16.2-8.1a2.14,2.14,0,0,0-2.48.4l-4.29,4.29a2.15,2.15,0,0,0-.27,2.71l7.27,10.91C436,96.31,436,98.43,436,99.26c0,3.87,5.5,4.3,17.17,4.3,11.42,0,85.83-25.13,85.83-38.63C539,62.35,537.12,56.35,519.69,56.35Z" transform="translate(-48.74 -52.05)"/><path class="cls-1" d="M500.36,66.81A2.15,2.15,0,0,0,498.84,65L455.93,52.15a2.15,2.15,0,0,0-2.14.53l-8.58,8.59a2.14,2.14,0,0,0-.61,1.8,2.18,2.18,0,0,0,1.06,1.58l30,17.16a2.14,2.14,0,0,0,1.06.29,2.18,2.18,0,0,0,1.1-.31l21.46-12.87A2.17,2.17,0,0,0,500.36,66.81ZM476.74,77.47,450.23,62.32l5.7-5.69,37,11.11Z" transform="translate(-48.74 -52.05)"/><path class="cls-1" d="M532.56,58.49c-9.26,0-14.17,4.71-14.37,4.9a2.14,2.14,0,0,0,1.5,3.68,2.2,2.2,0,0,0,1.49-.59c.16-.15,4-3.7,11.38-3.7a2.15,2.15,0,1,0,0-4.29Z" transform="translate(-48.74 -52.05)"/><path class="cls-1" d="M521.78,109.47l-6.44-25.75a2.14,2.14,0,0,0-4.16,1l6,24.08-5.51,2.75L493.46,89.32A2.15,2.15,0,0,0,490.13,92l19.31,23.6a2.13,2.13,0,0,0,1.66.79,2.1,2.1,0,0,0,1-.23l8.59-4.29A2.16,2.16,0,0,0,521.78,109.47Z" transform="translate(-48.74 -52.05)"/></svg>