<svg id="Layer_1" data-name="Layer 1" xmlns="http://www.w3.org/2000/svg" xmlns:xlink="http://www.w3.org/1999/xlink" viewBox="0 0 1000 400.33"><defs><style>.cls-1{fill:url(#linear-gradient);}.cls-2{opacity:0.1;}.cls-3{fill:#fff;}</style><linearGradient id="linear-gradient" y1="200.33" x2="1000" y2="200.33" gradientUnits="userSpaceOnUse"><stop offset="0" stop-color="#f67949"/><stop offset="1" stop-color="#de5b43"/></linearGradient></defs><rect class="cls-1" y="0.33" width="1000" height="400"/><g class="cls-2"><path class="cls-3" d="M510.47,398.88c-3.63-.78-6.37-2.58-9.25-4.51-1.3-.83-2.62-1.69-4-2.45-5-2.87-10.19-6.05-14.18-10.06-6.83-6.83-8.05-14.6-3.83-24.42,3-6.8,7.15-13.32,11.18-19.68,1.17-1.8,2.34-3.62,3.47-5.47,6.13-10,13.09-21.32,15.82-33.47,2.31-10.21-2-20.43-11.76-28C489,263.85,476.8,260,463.56,259.94h-4.8a81.3,81.3,0,0,1-9.89-.45c-7.58-.86-12.23-3.88-14.22-9.14a20.28,20.28,0,0,1-1.4-8.24,91.94,91.94,0,0,0-2.11-22.21c-3.44-15.43-15.74-26-37.58-32.37-4.61-1.3-9.26-2.52-13.91-3.75-7.77-2.06-15.78-4.17-23.43-6.7-18.79-6.1-33.87-15.14-44.81-26.84-1.56-1.7-3.05-3.39-4.57-5.06a157.39,157.39,0,0,0-13.12-13.6c-7-6.36-14.69-9.47-23.48-9.47-5.7,0-11.84,1.31-18.75,4C225.4,136.35,210,152.4,205.75,173.88c-2,10.4-1.13,21,2.69,32.37.59,1.77,1.22,3.49,1.84,5.26a115,115,0,0,1,4.45,14.7c1.49,7.19.94,14.86-1.68,23.46-4.29,14.2-9.92,25.07-17.81,34.19-9.41,10.95-23,17.26-40.43,18.82-5.58.52-11.29.78-16.91.78-20,0-40-3.18-61.29-9.75-3-.91-6-1.87-9-2.81-9.26-3-18.79-6-28.91-7.92a158.18,158.18,0,0,0-24.88-2.71c-1.53-.06-3-.16-4.53-.29-1.88-.16-3.83-.34-6.14-.34h0a2.6,2.6,0,0,1-1.52-.47V251.36A3.1,3.1,0,0,1,3,251.1a15.16,15.16,0,0,1,2.11.24c.43.07.86.15,1.25.18C33,254.91,55.67,261.58,75.71,271.9a219.81,219.81,0,0,0,28.13,12.56,113.84,113.84,0,0,0,35,6.75l2.7,0c18,0,31.84-5.08,41.05-15.15,9.38-10.24,14.38-22,15-34.89.43-8.47-2.18-16.61-4.88-24.16-4.33-11.89-6-21.79-5.31-31.1.94-13.86,3.32-30.05,14.1-44.93,4.34-6.12,10.2-12.09,18.36-18.74,2.85-2.32,5.66-4.64,8.48-7,8.71-7.19,17.73-14.62,27.46-21.4a127.34,127.34,0,0,1,16.36-10,112.38,112.38,0,0,0,30.32-21.79,213.67,213.67,0,0,1,32.07-26.4,271.46,271.46,0,0,1,24.76-13.9l3.91-2c9.49-4.93,15.94-10.53,19.65-17.12a6.65,6.65,0,0,1,2-1.77L385,.76h47.89a3.61,3.61,0,0,1,1.8,2.06c2.89,8,9.73,13.92,16,18.69C467,33.68,479,46.32,487.23,60.08c5.27,8.84,11.45,18.12,20.9,25.94a152.52,152.52,0,0,0,27.5,17.82l6.72,3.5c10.31,5.34,21,10.87,32.11,15.71a67.47,67.47,0,0,0,24.21,5.61c.55,0,1.1,0,1.64,0a42.42,42.42,0,0,0,25.28-7.82c6.13-4.27,11.36-9.51,16.91-17s10.2-15.48,14.65-23.2c1.6-2.76,3.2-5.55,4.84-8.31a156.15,156.15,0,0,1,13.4-19.55c4.65-5.71,6.18-11.31,4.61-17.15-2.46-9.36-2.89-18.9-3-27a20.3,20.3,0,0,1,.4-3.39A15.81,15.81,0,0,0,677.81,2c0-.47.24-.78.78-1.2h42a5.33,5.33,0,0,1,2.77,2.35,60.18,60.18,0,0,0,9,11.26c9.22,9,22.26,14.18,39.84,15.87a106.09,106.09,0,0,0,11.48.45c2.42,0,4.85,0,7.27.13,4.3.2,8.67.33,13,.44,9.45.23,19.21.49,28.63,1.9,17.15,2.56,28.55,11.42,30.58,23.72,1.26,7.37,1.22,13.34-.19,18.82-3.71,14.64-18.09,25-38.4,27.83a99.68,99.68,0,0,1-13.83,1,99.23,99.23,0,0,1-31.44-5.16c-7-2.32-13.79-5.16-20.35-7.9-2.62-1.12-5.28-2.24-8-3.31a132.6,132.6,0,0,0-13.75-4.67,55.8,55.8,0,0,0-15-2.08,62.75,62.75,0,0,0-23.59,4.85c-9.18,3.64-17.07,9-24.85,17-7,7.2-12.62,15.09-18,22.76-1.57,2.24-3.17,4.48-4.81,6.75a52.17,52.17,0,0,1-10.35,10.92c-5.94,4.58-13.79,6.93-24.8,7.37-1.3,0-2.54.08-3.76.08-16,0-31-4.27-45.58-13.06l-21.64-12.95c-12.89-7.69-25.7-15.35-38.51-23.09a115.84,115.84,0,0,1-32.58-29.38l-.47-.62c-6-8-12.15-16.21-22-22.47-12.82-8.29-25.12-12.3-38.8-12.66h-1.05a39.23,39.23,0,0,0-25.15,8.75,80.42,80.42,0,0,0-11,10.64,320.53,320.53,0,0,1-38.16,36c-7.39,6-12.07,12.56-13.91,19.55-2,7.82-.74,15.77,4.1,25,7.27,14.08,22.11,23.8,45.39,29.72,7.15,1.82,14.49,3.28,21.64,4.69,5.12,1,10.43,2.06,15.59,3.23C426.18,178.2,439,186,449,198.17c2.65,3.28,5.08,6.72,7.42,10.06,1.76,2.5,3.52,5,5.39,7.45,6.25,8.21,15.51,15.4,29.1,22.62,15.67,8.45,26.84,15.43,36.25,22.68A281,281,0,0,1,557,287.49c6.17,6.33,11.72,9,18.47,9,5,0,10.51-1.51,17.07-3.76a65,65,0,0,0,31.29-22.52c8.79-11.33,15.12-20.79,19.88-29.81a75.09,75.09,0,0,0,8.52-28.12c.39-4.56.58-9.15.78-13.58.16-4,.35-8,.66-11.94a41.54,41.54,0,0,1,2.94-13.32C660,165.59,668,161,680.16,159.72a165.67,165.67,0,0,1,16.87-.93c13.44,0,25,2.05,35.32,6.3a78.43,78.43,0,0,1,29.72,21.06c10.51,12,16.76,25.49,18.55,40l.44,3.46c.89,7.61,1.87,15.48,5.82,22.91,3.36,6.31,8.16,13.29,18.78,17.31a44.6,44.6,0,0,0,10,2.71,25.41,25.41,0,0,0,4,.31c6.48,0,11.64-2.55,14.45-7.14,3.13-5.06,4.46-10.48,5.78-15.74l.32-1.36c2.61-10.19,6.05-21.94,14.22-32.63A104.37,104.37,0,0,1,875.7,195c7.89-5.74,16.53-11.13,24.88-16.32l6.92-4.3A251.47,251.47,0,0,0,937.34,152c12.66-10.87,23.6-19.75,35.94-27.88,6.25-4.12,13.36-8.47,22.27-13.69.31-.18.62-.41,1-.62a4.56,4.56,0,0,1,1.8-.89v50c-3.36,4-8.52,6.9-13.6,9.38-11,5.45-22.81,9.67-33.9,13.39-2.93,1-5.86,1.93-8.75,2.9-12,3.93-24.41,8-35.82,13.13-21.37,9.67-34.57,21.51-40.51,36.26a39.6,39.6,0,0,0-3.28,14.85v2.66c0,4.8,0,9.78,1.41,14.7,2.89,10.22,11.29,17.46,24.92,21.48A224.55,224.55,0,0,0,912.5,293c2.34.42,4.65.87,7,1.31,12.19,2.37,28.17,5.78,43.17,11.31,18.08,6.67,28.43,17.17,31.6,32.16,2.11,10-.39,19.5-7.43,28.15-4.14,5.06-10.62,8.7-20.89,11.83a191.73,191.73,0,0,1-22,4.8c-1.83.31-3.67.62-5.5,1l-.39.08c-5.75,1.07-11.64,2.19-17.27,3.8a37.53,37.53,0,0,0-15.86,9.28,15.77,15.77,0,0,1-2.89,2.22H871.09a4.23,4.23,0,0,1-1.4-3.21l-.2-.91a44.38,44.38,0,0,0-4.22-12.59c-2.07-3.88-6-6.3-11.83-7.4A185.67,185.67,0,0,0,833,372.53c-10.55-.78-21.09-1.38-30.94-1.93-3.59-.18-7.11-.29-10.31-.29-19.46,0-34.45,3.37-47.27,10.61a56.74,56.74,0,0,0-17.34,15.51,6.47,6.47,0,0,1-2.77,2.45H691.72c-.39-.37-.23-.81.39-1.88a50,50,0,0,1,13.52-16.13,127.12,127.12,0,0,1,56.4-24.5,103.48,103.48,0,0,1,16.64-1.46h3.71c2.31,0,4.57,0,6.84,0s4.53.05,6.84.05c4.29,0,10-.08,15.74-.6,7.07-.68,15.08-1.8,20.86-6.72,2-1.73,4-3.66,4.8-6.05,2.78-8.63,6.33-30.05-20.82-42.72l-4.38-2c-6.4-3-13-6-19.14-9.38-16-8.91-26-20.8-29.68-35.34-1.72-6.78-2.11-13.5-2.42-19.81-.27-8.29-.94-17.88-5.55-27a54.13,54.13,0,0,0-47.93-29.87,56.55,56.55,0,0,0-8,.57c-10.31,1.54-17.89,6.13-22.34,13.68-3.52,5.89-4.45,12.1-4.92,16.84a274.57,274.57,0,0,1-9.06,49.94c-2,7-2.9,14.2-3.83,21.19l-.39,2.89c-1.84,13.61-8,24.4-18.75,33.1-3.6,2.87-7.58,5.53-11.49,8.13-2.42,1.62-4.84,3.26-7.22,4.95-8.56,6.1-14.26,13.27-17.46,21.95-1.1,2.81-2.12,5.68-3.13,8.55-1.45,4.12-2.93,8.39-4.69,12.56-2.89,7.09-6.8,14.07-10.54,20.85-1.18,2.14-2.35,4.28-3.52,6.44a4.2,4.2,0,0,1-2.11,1.72H510.47m-.23,1.07h70.31a5.73,5.73,0,0,0,3.12-2.43c4.92-9.09,10.28-18,14.14-27.36,2.9-7,5.08-14.1,7.78-21.14,3.08-8.29,8.59-15.4,17.11-21.47,6.21-4.44,12.93-8.5,18.79-13.14,12-9.7,17.42-21.14,19.14-33.67,1-8.06,2-16.11,4.14-24a277.39,277.39,0,0,0,9.14-50c.51-5.66,1.64-11.26,4.76-16.55,4-6.72,10.82-11.47,21.25-13a55.1,55.1,0,0,1,7.62-.54,50.46,50.46,0,0,1,23.17,5.65,51.12,51.12,0,0,1,23.2,23.49c4.37,8.6,5.23,17.64,5.54,26.66.28,6.64.71,13.32,2.39,19.94,3.71,14.7,13.63,26.79,30.27,36,7.54,4.2,15.63,7.74,23.59,11.44,21.72,10.14,24.88,27.11,20.2,41.65-.74,2.14-2.54,3.91-4.49,5.6-5.24,4.46-12.31,5.61-19.85,6.34-5.15.46-10.31.57-15.5.57-4.58,0-9.11-.11-13.68-.11-1.25,0-2.46,0-3.71.06a108,108,0,0,0-17,1.46,130.3,130.3,0,0,0-57.26,24.86,51.83,51.83,0,0,0-13.79,16.42c-.67,1.2-1.25,2.35.43,3.34h33.71a7.52,7.52,0,0,0,3.79-3,55.87,55.87,0,0,1,17-15.2c13.87-7.85,29.61-10.35,46.21-10.35,3.36,0,6.76.11,10.16.29,10.31.57,20.62,1.17,30.93,1.9A189.72,189.72,0,0,1,853,375.79c5.23,1,8.83,3.1,10.78,6.75a44.62,44.62,0,0,1,4.14,12.35c.39,1.83.31,3.73,2.5,5.06h32.19a16.87,16.87,0,0,0,3.75-2.79,35.25,35.25,0,0,1,15.08-8.78,175,175,0,0,1,17.46-3.86c9.37-1.72,18.79-3.08,27.69-5.82s16.64-6.17,21.64-12.27c7.31-9,9.77-18.61,7.62-28.83-3.17-14.77-13.4-26-32.42-32.94-13.87-5.11-28.56-8.5-43.48-11.39-10.23-2-20.62-3.62-30.47-6.57-13.12-3.88-21.13-10.71-24-20.72-1.64-5.7-1.33-11.41-1.41-17.15a38.62,38.62,0,0,1,3.28-14.59c6.33-15.8,20.82-27,39.85-35.63,14.06-6.33,29.37-10.92,44.37-16,11.84-4,23.44-8.18,34.14-13.5,5.55-2.71,10.78-5.71,14.26-10V108.12a4.21,4.21,0,0,0-1.53-.29c-1.64,0-2.73,1.12-3.9,1.75-7.62,4.46-15.16,9-22.38,13.76-13,8.6-24.73,18.24-36.06,28a255.48,255.48,0,0,1-29.68,22.26c-10.79,6.78-21.8,13.32-31.88,20.67A105.68,105.68,0,0,0,853,215.47c-7.89,10.32-11.49,21.58-14.38,32.95-1.44,5.73-2.69,11.46-6,16.86-2.58,4.17-7.15,6.44-13,6.44a24.78,24.78,0,0,1-3.59-.26,40.55,40.55,0,0,1-9.54-2.61c-9.6-3.6-14.45-9.85-18.08-16.73-4.49-8.39-5-17.31-6.21-26.09-1.8-14.57-8-28.05-18.75-40.43a79.36,79.36,0,0,0-30.23-21.42c-11.49-4.72-23.68-6.46-36.18-6.46a165.52,165.52,0,0,0-17.11,1c-12,1.23-21.09,5.79-24.88,14.44a41.69,41.69,0,0,0-3,13.58c-.62,8.5-.7,17-1.44,25.49a74.17,74.17,0,0,1-8.44,27.86c-5.43,10.3-12.3,20-19.8,29.63a63,63,0,0,1-30.55,22.08c-6.56,2.27-11.72,3.67-16.37,3.67-6,0-11.13-2.39-17.15-8.54a282.89,282.89,0,0,0-29.92-26.59c-11-8.5-23.51-15.84-36.48-22.83-11.56-6.12-21.76-13.14-28.71-22.26-4.41-5.78-8.17-11.83-12.81-17.54-9.34-11.41-21.84-20.07-40-24.24-12.27-2.79-24.93-4.79-37.15-7.89-20.55-5.24-36.64-13.95-44.46-29.06-4.14-7.95-6.25-16.09-4.06-24.53,1.92-7.27,6.8-13.55,13.6-19a323.53,323.53,0,0,0,38.28-36.13,81.1,81.1,0,0,1,10.82-10.5,37.61,37.61,0,0,1,23.94-8.37h1c14.92.4,27,5.45,37.73,12.36,9.88,6.31,16,14.62,22.11,22.8a117,117,0,0,0,33,29.69c20,12.09,40.12,24,60.12,36.05,13.51,8.13,28.82,13.34,46.67,13.34,1.29,0,2.54,0,3.87-.08,9.85-.39,18.83-2.24,25.86-7.74a52.42,52.42,0,0,0,10.63-11.18c7.22-9.93,13.74-20.15,22.73-29.37a69.05,69.05,0,0,1,24.3-16.63,60.7,60.7,0,0,1,22.77-4.69,52.76,52.76,0,0,1,14.42,2A136.37,136.37,0,0,1,750.16,89c9.37,3.81,18.51,8,28.36,11.26a101.87,101.87,0,0,0,32.18,5.26,100,100,0,0,0,14.14-1c21.1-2.89,35.86-13.63,39.69-28.69,1.6-6.36,1.25-12.77.16-19.13-2.11-13.06-14.53-22-31.8-24.63C819,30.06,805,30.45,791.06,29.75c-6.22-.29-12.47.1-18.64-.55-15.74-1.54-29.14-6.05-38.75-15.43a61.2,61.2,0,0,1-8.82-11.08,6.69,6.69,0,0,0-3.79-3H677.89C677,.35,676.17,1,676.17,2c0,2.22-.86,4.43-.78,6.73.12,9.09.7,18.22,3.05,27.18,1.56,5.94-.23,11.31-4.45,16.45A156.74,156.74,0,0,0,660.51,72c-6.29,10.52-11.88,21.29-19.45,31.43a72.41,72.41,0,0,1-16.61,16.7,40.46,40.46,0,0,1-24.14,7.48c-.5,0-1,0-1.56,0a65.44,65.44,0,0,1-23.4-5.42c-13.47-5.87-26-12.59-38.75-19.16a150.62,150.62,0,0,1-27.22-17.67c-9.22-7.61-15.24-16.58-20.66-25.65C479.89,45,467.31,32.3,452,20.81c-7-5.29-13.09-11-15.71-18.25A4.91,4.91,0,0,0,433.44-.3H384.38a10,10,0,0,0-3,2.58c-3.94,7-10.7,12.3-19.14,16.68C352.35,24.09,342.39,29,333.4,35a218.63,218.63,0,0,0-32.26,26.56,111.09,111.09,0,0,1-29.92,21.53,127.85,127.85,0,0,0-16.6,10.13c-12.86,9-24.18,18.82-36,28.41-7.11,5.79-13.63,12-18.55,19-10.28,14.18-13.21,29.66-14.26,45.32-.82,10.66,1.6,21.11,5.35,31.41,2.81,7.82,5.27,15.66,4.84,23.87-.54,12.41-5.19,23.93-14.72,34.35s-23.36,14.65-39.69,14.65c-.86,0-1.76,0-2.62-.05a111.54,111.54,0,0,1-34.37-6.6A219.29,219.29,0,0,1,76.69,271c-21.06-10.84-44.61-17.33-70-20.56A32.86,32.86,0,0,0,3,250a5,5,0,0,0-2.93.84v28.72a5,5,0,0,0,3.12,1.15h.28c3.47,0,6.87.52,10.31.59A156.69,156.69,0,0,1,38.29,284c13.16,2.4,25.23,6.88,37.66,10.68,20,6.16,40.58,9.83,62,9.83,5.66,0,11.37-.26,17.15-.81,18.24-1.61,32.07-8.29,41.6-19.34,9.18-10.63,14.33-22.41,18-34.5,2.38-7.82,3.36-15.8,1.71-23.8-1.4-6.8-4.1-13.42-6.32-20-3.56-10.58-4.77-21.17-2.66-32,4.14-21,19.06-36.83,45-47a49.77,49.77,0,0,1,17.93-3.86c8,0,15.31,2.77,22.19,9,6.6,5.89,11.87,12.35,17.61,18.58,11.45,12.28,26.76,21.19,45.47,27.27,12.23,4,25,6.93,37.42,10.47,20.2,5.87,33.13,15.9,36.61,31.54a89.39,89.39,0,0,1,2.1,22.05,21.58,21.58,0,0,0,1.45,8.5c2.15,5.68,7.23,9,15.51,9.95a88.55,88.55,0,0,0,10.16.44h4.8c27.93.08,49,18,44.57,37.67-2.66,11.7-9.14,22.44-15.74,33.23-5.16,8.31-10.82,16.47-14.69,25.25s-3.91,17.36,4,25.31c4,4,9.14,7.22,14.46,10.27,4.57,2.53,8.16,6,14.06,7.22Z" transform="translate(0 0.33)"/><path class="cls-3" d="M3.56,157.69a3.24,3.24,0,0,1-1.91-.47V140.83A4.19,4.19,0,0,1,4,140.31c.59,0,1.18.05,1.8.1l1.37.08,2.46,0c4.3.13,8.59.24,12.85.24,7.38,0,17.07-.29,27-2.58,18-4.28,31.64-12.36,41.76-24.74,7-8.63,10.86-18.58,12.15-31.27.7-7.74.23-15.33-.35-23-.51-8.32-1.14-15.82-3.71-23.36C96.88,28.94,91,24.38,81.73,22.21c-10.94-2.5-22.42-3.38-32.35-4-7.73-.46-15.39-.54-22.54-.54l-5.82,0H15.24A86.68,86.68,0,0,0,5.91,18,14.85,14.85,0,0,1,4,18.12a4.21,4.21,0,0,1-2.38-.57V13c0-3.83.08-7.66,0-11.49,0-.55,0-.73,0-.76A10.15,10.15,0,0,1,2.67.74c40.66,0,81.44,0,122.1,0a41.56,41.56,0,0,0,14.81,2.72,46.11,46.11,0,0,0,8.59-.84c1.56-.29,3.17-.49,4.77-.7,2.3-.32,4.68-.63,7-1.18h37.62c.27.53-.12,1-1.29,2a80.4,80.4,0,0,1-20.94,13.45c-2.5,1.12-5.08,2.24-7.62,3.33C160.94,22.5,154,25.52,147.55,29c-8.87,4.82-14.93,11.57-19.07,21.24-3.59,8.31-4.72,17-5.86,25.36l-.11.75c-1.76,13-4.77,26.85-14.88,39.57a89.86,89.86,0,0,1-12,12.12c-17.11,14.44-39.76,23.56-67.34,27.13-6.84.86-14.37,1.64-23.79,2.45a5.62,5.62,0,0,1-.9.05m0,1.07a8.93,8.93,0,0,0,1.14,0c8-.71,15.93-1.49,23.86-2.48,27.27-3.52,50.32-12.35,68.28-27.52A88.84,88.84,0,0,0,109,116.43c9.88-12.4,13.2-26,15.08-39.95,1.17-8.73,2.26-17.46,5.9-25.93a40.56,40.56,0,0,1,18.55-20.7c8.75-4.77,18.4-8.57,27.66-12.72A81.24,81.24,0,0,0,197.55,3.42c1.13-1,2.65-2.24.89-3.72H159.66c-3.87.93-7.93,1.2-11.92,1.92a42.88,42.88,0,0,1-8.16.79A39.17,39.17,0,0,1,125.2-.3Q64-.3,2.67-.33C.48-.33,0,0,0,1.57.17,7,.05,12.49.05,17.94a5.79,5.79,0,0,0,4,1.25,18.53,18.53,0,0,0,2.11-.13,81.87,81.87,0,0,1,9.1-.34l11.6,0c7.5,0,15,.07,22.39.54,10.82.71,21.6,1.62,32,4C90.05,25.29,95.44,29.54,97.7,36c2.62,7.63,3.21,15.43,3.68,23.17s1.05,15.25.35,22.91c-1.1,10.92-4.22,21.32-12,30.83-9.45,11.6-22.69,19.94-40.89,24.24a115.68,115.68,0,0,1-26.41,2.53c-5,0-10.16-.16-15.23-.29-1.1,0-2.19-.18-3.25-.18a5.94,5.94,0,0,0-3.94,1.17v17.2a5.08,5.08,0,0,0,3.51,1.15Z" transform="translate(0 0.33)"/><path class="cls-3" d="M214.15,398.88c1.21-6.54,4.1-13.27,9.33-21.61,6-9.64,14-18.66,21.76-27.36,2.38-2.66,4.77-5.37,7.11-8.06l.82-1c6.41-7.51,13.09-15.33,20.9-22.31,17.54-15.64,37.58-24.4,61.25-26.69a95.19,95.19,0,0,1,10-.52c13.75,0,24.68,3.13,33.47,9.54,5.47,4.06,8.4,9.35,10.9,14.44,4.61,8.94,7.31,18.45,9.88,27.67l.63,2.14a116.28,116.28,0,0,0,18.36,38.37,51,51,0,0,1,7.73,15.35H391.61a3.4,3.4,0,0,1-1.61-2.11l-.39-1.72c-2.11-9.78-4.29-19.89-5.27-29.92l-.35-3.44a172.57,172.57,0,0,0-2.74-20.18c-1.91-8.54-5.07-18.4-14.41-26.63-7.26-6.47-17-10-29-10.58-1.21-.06-2.39-.08-3.56-.08-13,0-25.51,3.78-38.12,11.49-10.55,6.47-17.54,14.78-23.75,22.73-5.43,6.85-11.13,13.73-16.68,20.38-3.48,4.22-7,8.44-10.43,12.67-7.54,9.35-11.95,16.89-14.34,24.44-.47,1.57-.93,2.45-2.18,2.95H214.15m-1.8,1.07h16.84c2.3-.73,2.89-2.24,3.36-3.81,2.73-8.65,8-16.52,14.18-24.13,9-11.08,18.32-21.95,27.1-33.08,6.41-8.15,13.29-16.21,23.44-22.44,10.74-6.59,22.74-11.2,37-11.2,1.14,0,2.27,0,3.44.1,11.21.52,20.7,3.81,27.81,10.11,8.67,7.67,12,16.73,14.1,26.17,1.72,7.79,2.31,15.64,3.09,23.54,1.05,10.66,3.4,21.18,5.66,31.72a4.93,4.93,0,0,0,2.54,3h37.31A51.45,51.45,0,0,0,420,383.06,116.35,116.35,0,0,1,401.8,345c-2.85-10.09-5.55-20.28-10.55-30-2.65-5.34-5.66-10.63-11.24-14.78-9.85-7.22-21.84-9.93-34.65-9.93-3.36,0-6.8.21-10.28.55C309,293.35,289,303.51,272.78,318c-8.2,7.35-15,15.38-21.84,23.36C240.87,353,229.85,364.24,222,376.86c-4.61,7.35-8.4,15-9.65,23.09Z" transform="translate(0 0.33)"/><path class="cls-3" d="M64.19,398.88A16.33,16.33,0,0,1,60.44,397c-6.21-4.35-14.06-6.73-24-7.32-2.26-.13-4.64-.19-7.26-.19-4.65,0-9.41.21-14,.42l-4,.16c-.78,0-1.56.07-2.38.15-1,.05-2,.16-3.05.16a8.49,8.49,0,0,1-4.1-.83V354l4.53-.5,18-2.06a88.45,88.45,0,0,1,10.08-.6,78,78,0,0,1,33.32,7.35c17.07,8,29.88,18.25,38.08,30.47a53.16,53.16,0,0,1,5,10.27H64.19M63.8,400h49c-1.64-4-3.16-8-5.7-11.78-8.71-13-22-23.1-38.6-30.91a80.09,80.09,0,0,0-34.25-7.51,93.8,93.8,0,0,0-10.36.57C16,351.26,8,352.15.05,353v37a10,10,0,0,0,5.7,1.41c1.84,0,3.71-.23,5.51-.31,6-.21,12-.55,17.89-.55,2.38,0,4.76.05,7.15.18,8.75.52,16.6,2.53,23,7A17.93,17.93,0,0,0,63.8,400Z" transform="translate(0 0.33)"/><path class="cls-3" d="M998.36,68.27c-2.11-1.75-4-3.65-5.78-5.5-1.25-1.28-2.5-2.56-3.79-3.81l-2.7-2.5a124.73,124.73,0,0,0-14.84-12.69c-9-6.18-20.31-11-33.67-14.18-5.63-1.33-11.25-2.55-17-3.78-5.23-1.15-10.54-2.29-15.78-3.54C891.21,19,882.42,10.8,881.56.76h32.35A27.3,27.3,0,0,1,920.35,4c5.82,3.63,12.77,5.5,20.59,7.4q4.39,1.1,8.79,2.12c9.41,2.21,19.18,4.5,28.08,8.05a133.64,133.64,0,0,1,17.89,9.07,6.05,6.05,0,0,1,1.8,2,11.65,11.65,0,0,0,.86,1.25V68.27m1.6,2.84V33.6c-1.13-1.25-1.53-2.78-3.24-3.75a129.29,129.29,0,0,0-18.09-9.17c-11.76-4.69-24.57-7.12-37.15-10.25-7.1-1.74-14.22-3.59-20-7.19A27.52,27.52,0,0,0,914.3-.3H879.92c.28,10.89,9.53,20,24.38,23.58C915.16,25.84,926.17,28,937,30.61c12.42,3,23.67,7.45,33.08,13.91,6.61,4.57,11.84,9.88,17.39,15.07,4.1,3.86,7.5,8.1,12.46,11.52Z" transform="translate(0 0.33)"/><path class="cls-3" d="M113.21,398.88a2.83,2.83,0,0,1-1.76-1.72c-3.82-9.83-11-18.69-22.15-27.16a104,104,0,0,0-33.51-17.18A74.6,74.6,0,0,0,34.66,350c-4.3,0-8.87.26-14.34.8-2.89.32-5.78.68-8.63,1.05-2.54.34-5,.68-7.62.93a7.19,7.19,0,0,1-1.09.11,2.52,2.52,0,0,1-1.33-.31v-72h.51a191.26,191.26,0,0,1,65.58,11.16A218,218,0,0,0,126.61,304c4.41.32,8.71.47,12.77.47a124.45,124.45,0,0,0,26.56-2.66c12.82-2.76,22.93-8.49,30-17A90.44,90.44,0,0,0,216.3,241c1.21-7.14.39-14.64-2.78-24.29q-1-3-2.11-5.94c-1.79-5-3.67-10.11-4.45-15.27-3.4-22.16,3.09-39.8,19.84-54,10.71-9,21.18-14.37,33-16.95a52.81,52.81,0,0,1,11.53-1.45c7.61,0,13.55,2.45,20.62,8.49a131.82,131.82,0,0,1,13.16,13.29,150.49,150.49,0,0,0,11.21,11.63c7.62,7,17.31,12.85,29.57,17.83,10.2,4.11,21.22,7,31.88,9.82,5,1.33,10.16,2.69,15.16,4.14,16.13,4.75,26.28,11.16,32,20.18,3.87,6.2,5.27,13,6.29,18.84a51.69,51.69,0,0,1,.46,9.12,43.75,43.75,0,0,0,.86,11.18c2.46,10.4,9,12.52,21.88,13.14,2.22.1,4.45.13,6.64.16a80.82,80.82,0,0,1,14.53,1c18.71,3.44,33,16.5,33.13,30.34.19,10.5-4.69,20.3-9.46,28.51-3,5.24-6.25,10.4-9.45,15.56-2.69,4.36-5.39,8.71-8,13.09-4,6.85-6.09,12.56-6.56,17.9s2,10.51,7.81,16.08c3.32,3.24,7.58,5.74,11.64,8.14,1.8,1.06,3.56,2.11,5.27,3.23l6.33,4.09H429a3.3,3.3,0,0,0-.39-.26c-.63-.45-1-.68-1.1-1.12-2.54-7-6.91-13.48-11.17-19.76l-.62-.91c-8.21-11.91-12.27-25-15.43-36.28-2.66-9.46-5.74-19.52-11.06-29.06-7.5-13.58-21.25-20.17-43.32-20.8h-2.61c-18.36,0-35.59,4.9-54.22,15.48-11.68,6.68-20.12,15-29.22,25.34l-3.63,4.06c-8.48,9.57-17.27,19.45-25.43,29.4-8.67,10.61-14.38,20.8-17.42,31.09a5.15,5.15,0,0,1-1.64,2.82H189c-.54-.65-.31-1.38.16-2.5l.23-.58a81.46,81.46,0,0,1,8.91-17.12c18.48-27.26,35.51-47,55.23-64s45.16-29.74,75.39-37.58c9.57-2.5,19.92-4.49,28.21-6.08,14.21-2.78,24.06-9,30.15-19.26,5.74-9.59,8.6-17.87,9-26,.51-9.25-4.57-17-15.11-23-7.74-4.4-16.45-7.56-24.92-10.61L352.86,191l-2.23-.83c-9.77-3.57-19.88-7.27-28.91-11.94a160.59,160.59,0,0,1-24.53-16.31,124.39,124.39,0,0,0-14.53-10.17A39,39,0,0,0,263,146.33a40.74,40.74,0,0,0-25.43,9.07c-10.63,8.57-14.73,19.18-12.93,33.41.86,6.33,3.16,12.38,5.86,19a49.19,49.19,0,0,1,1.25,35.24c-6.29,19.15-13,34.3-21.37,47.59-7.93,12.82-22,20.48-43.13,23.46-8.08,1.14-16.56,1.61-24.72,2.08l-2.27.11-5.08.25c-9.37.47-19.1.94-28.51,2.82a34.4,34.4,0,0,0-9.77,3.29c-5.08,2.81-6.83,6.56-5.47,11.46,1.49,5.11,5.08,9.44,8,12.62a205.68,205.68,0,0,0,15.74,14.9q4,3.53,7.86,7c8.47,7.92,17,16.71,21.25,27.32l.19.47c.43,1.06.7,1.77.35,2.42h-31.6m-.39,1.07h32.93c1.45-1.41.62-2.82.08-4.23-4.22-10.37-12.42-19.18-21.53-27.67-7.81-7.25-16.44-14.15-23.51-21.9-3.52-3.8-6.49-7.71-7.81-12.25-1.18-4.17,0-7.66,4.92-10.42a31.05,31.05,0,0,1,9.22-3.1c10.9-2.17,22.11-2.43,33.24-3,9.14-.49,18.28-.93,27.23-2.21,20.23-2.87,35.66-10.19,44.25-24.08,9.57-15.38,16.1-31.44,21.45-47.78A50,50,0,0,0,232,207.55c-2.5-6.2-4.92-12.41-5.78-18.82-1.53-12,.93-23.27,12.58-32.66A38.82,38.82,0,0,1,263,147.4a36.37,36.37,0,0,1,18.63,5.13,124.62,124.62,0,0,1,14.33,10A161,161,0,0,0,320.75,179c9.8,5.08,20.58,8.91,31.33,12.87,9.6,3.52,19.41,6.83,28,11.73,10,5.71,15.08,13,14.57,22.15-.47,9-4,17.44-8.9,25.65-5.63,9.38-14.92,15.85-29.1,18.61-9.5,1.82-19.07,3.68-28.36,6.1C298.21,284,272.58,296.48,252.23,314c-22.69,19.52-40,41.44-55.43,64.2a82.81,82.81,0,0,0-9,17.3c-.55,1.49-1.52,3,.39,4.41h24.18a5.73,5.73,0,0,0,2.54-3.65c3.24-11,9.37-21.16,17.26-30.83,9.3-11.29,19.22-22.37,29-33.44,8.08-9.2,16.76-18.09,28.9-25,15.67-8.92,32.74-15.28,53.17-15.28.86,0,1.68,0,2.54.06,22.18.57,34.84,7.29,41.91,20.07,5.2,9.35,8.2,19.1,11,28.87,3.51,12.56,7.58,25,15.54,36.54,4.5,6.67,9.06,13.27,11.68,20.46.28,1.07,1.49,1.49,2.35,2.22h82c-3.05-2-6.14-4-9.18-5.94-5.63-3.65-12.07-6.7-16.68-11.21-4.8-4.59-8.05-9.59-7.54-15.38.51-6.12,3.12-11.94,6.44-17.57,5.67-9.59,11.8-19.05,17.43-28.66,5.39-9.23,9.76-18.69,9.61-28.94-.24-14.38-14.81-27.73-34.34-31.32-7.15-1.36-14.3-.89-21.48-1.2-12.82-.63-18.17-2.71-20.43-12.25-1.65-6.73-.16-13.5-1.29-20.28-1.14-6.57-2.62-13.06-6.41-19.13-6.56-10.4-18.55-16.52-32.85-20.72-15.62-4.59-32-7.92-46.84-13.92-11.21-4.56-21.09-10.19-29.1-17.54-8.82-8-15.15-17.2-24.41-25C286.26,125,280,122,271.3,122a55.05,55.05,0,0,0-12,1.51c-13.86,3-24.61,9.64-33.71,17.3-18.79,15.85-23.28,34.62-20.19,54.71,1.13,7.27,4.26,14.26,6.6,21.32,2.58,7.92,4.14,15.85,2.73,24a89.63,89.63,0,0,1-20.11,43.42c-6.68,8-16.45,13.76-29.14,16.5a123,123,0,0,1-26.06,2.6c-4.18,0-8.4-.18-12.61-.47a215.35,215.35,0,0,1-58.29-12.06A194.71,194.71,0,0,0,2.16,279.59H.05V353A4.13,4.13,0,0,0,3,354a12.78,12.78,0,0,0,1.36-.07c5.43-.61,10.79-1.41,16.22-2a136.46,136.46,0,0,1,14.1-.8,71.86,71.86,0,0,1,20.47,2.7,102.86,102.86,0,0,1,33,16.89c10.12,7.72,17.82,16.48,21.8,26.75a4.35,4.35,0,0,0,2.93,2.5Z" transform="translate(0 0.33)"/><path class="cls-3" d="M582.81,398.88l4-7.43c5.35-9.85,10.9-20.07,14.37-30.73,2.08-6.41,4.22-13,7.82-19.26a37.74,37.74,0,0,1,11.17-12.14c3.47-2.53,7-5,10.62-7.43,2.11-1.46,4.26-2.92,6.33-4.38,13.13-9.1,20.66-20.09,22.46-32.76,2.35-16.66,6.29-33.52,9.85-48a144.89,144.89,0,0,0,3.08-20.12l.43-4.27c.74-6.73,1.6-14.39,5-21.48,4.22-8.73,15.86-14.57,28.95-14.57a42.38,42.38,0,0,1,4.8.26c15.55,1.77,27.23,8.21,36.87,20.23,6.22,7.76,9.54,16.73,10.51,28.22.2,2.45.35,5,.51,7.43.35,7,.74,14.31,2.85,21.4,4.61,15.56,16.29,28,34.73,36.9l7.5,3.6c4.61,2.19,9.33,4.43,13.83,6.8,11.64,6.13,17.81,14.08,18.9,24.32a34,34,0,0,1-.78,14.18c-1.8,6.46-7.34,10.73-16.56,12.72a87.67,87.67,0,0,1-17.58,1.72H791.84c-2.15-.06-4.34-.06-6.45-.06-3.87,0-8.91.06-14.1.42-13.16.89-26.21,4.22-39.92,10.22-14.18,6.17-24.26,12.56-31.6,20.07-4.85,4.85-8.13,9.48-10,14.15H651.41c-.63-.5-.7-1.17-.78-2.22v-.52a41.84,41.84,0,0,1,0-4.48,27.91,27.91,0,0,0-.74-8.91l-.2-.63c-.59-2-1.33-4.51-5.27-5.47a12.56,12.56,0,0,0-2.39-.26c-3.24,0-5.62,1.51-7.65,2.92-6.8,4.79-11.64,9.85-15,15.42l-.51.87a6.1,6.1,0,0,1-3,3.28H582.81M580.55,400h35.82c2.77-1,3.48-3,4.53-4.85,3.4-5.73,8.44-10.66,14.65-15.06,1.8-1.28,3.87-2.58,6.48-2.58a8,8,0,0,1,1.88.23c3.44.81,3.75,3.18,4.41,5.26,1.33,4.41.43,8.81.71,13.24.11,1.39-.08,2.82,1.75,3.76H691c2-5.37,5.62-10.17,10.07-14.65,8.17-8.29,19.15-14.54,31.18-19.76a116.65,116.65,0,0,1,39.17-10.06c4.65-.31,9.26-.39,13.95-.39,4.3,0,8.59.08,12.89.08,1.41,0,2.81,0,4.22-.05a89.48,89.48,0,0,0,18-1.72c9.45-2.06,15.7-6.47,17.69-13.55a36.63,36.63,0,0,0,.82-14.44c-1.17-10.64-7.73-18.87-19.53-25.1-6.95-3.68-14.29-7-21.41-10.43-18.2-8.83-29.53-20.87-34.09-36.25-2.78-9.49-2.54-19.11-3.32-28.7-.86-10.13-3.6-19.8-10.71-28.64-8.55-10.69-19.92-18.71-38-20.77a49.4,49.4,0,0,0-5.11-.29c-13.56,0-26,6-30.51,15.3-3.36,7.06-4.26,14.41-5.08,21.74-.86,8.1-1.44,16.29-3.52,24.31-3.86,15.95-7.57,31.93-9.84,48.06-1.76,12.51-9.34,23.36-22,32.12-5.63,3.93-11.45,7.81-17,11.83a38.92,38.92,0,0,0-11.53,12.51c-3.63,6.3-5.74,12.92-7.85,19.49C595.16,374.2,587.35,387,580.55,400Z" transform="translate(0 0.33)"/><path class="cls-3" d="M600.63,127.77a59.87,59.87,0,0,1-9.18-.76A69.59,69.59,0,0,1,572,120.94c-15.86-7.4-32.62-15.51-47.7-24.65-12-7.3-20.82-15.07-27.15-23.77-2.57-3.55-5-7.22-7.26-10.77a183.66,183.66,0,0,0-11.53-16.29,126.25,126.25,0,0,0-21.17-20.25C452.93,21.93,448,18,443.64,13.85A32.12,32.12,0,0,1,435.43.76H485c1.26.5,1.53,1.36,1.92,2.79L487,4a417.49,417.49,0,0,0,18.82,51.16,65.15,65.15,0,0,0,20,25.46,85.5,85.5,0,0,0,19.22,10.9c13.24,5.37,24.84,8.36,36.45,9.43,1,.08,2,.13,3,.13,10.55,0,18.83-5,20.55-12.56,1.25-5.08.62-10.17,0-15.07l-.31-2.55c-2.35-18.71.19-35,7.85-49.73,2.89-5.5,7.54-10.5,12.19-15.48.46-.47.9-1,1.32-1.48A11.86,11.86,0,0,1,630.08.76h46.25a23.8,23.8,0,0,1-.39,3.71c-.16,1.19-.31,2.34-.39,3.54a110.11,110.11,0,0,0,3,27.89c1.49,5.68.16,10.92-4.06,16-7.18,8.78-12.73,18.27-18.12,27.44l-.55,1-1.48,2.58c-5.94,10.21-12.11,20.79-21.17,30.05a54.39,54.39,0,0,1-14.46,10.73,39.42,39.42,0,0,1-18.12,4.07m0,1.07a41.64,41.64,0,0,0,19.06-4.28,55.74,55.74,0,0,0,14.84-11c9.92-10.14,16.22-21.53,22.82-32.84,5.62-9.62,11.24-19.26,18.59-28.28,4.3-5.21,5.82-10.74,4.26-16.73a107.17,107.17,0,0,1-3-27.71c.08-2.74.94-5.5.7-8.31H629.57c-3,1.27-4.26,3.54-6.05,5.42-4.69,5-9.42,10-12.39,15.69-8.39,16.21-10.07,33-7.92,50.17.7,5.76,1.79,11.54.38,17.36-1.64,7.11-9.37,11.67-19,11.67-.94,0-1.87-.05-2.85-.13-13-1.2-24.65-4.77-35.82-9.28a83.1,83.1,0,0,1-18.83-10.68,63.51,63.51,0,0,1-19.69-25.05A411.56,411.56,0,0,1,488.6,3.79c-.47-1.62-.7-3.29-3.2-4.09h-52a33.57,33.57,0,0,0,8.87,14.75c4.22,4,8.87,7.76,13.63,11.47a125.26,125.26,0,0,1,21,20c7.07,8.68,12.26,18,18.75,27,6.83,9.46,16.37,17.3,27.54,24.08,15,9.12,31.4,17.07,47.85,24.76a70.7,70.7,0,0,0,20,6.23,63.47,63.47,0,0,0,9.54.78Z" transform="translate(0 0.33)"/><path class="cls-3" d="M997,400l-.16-1.07q-23.55-.07-47.11-.08l-23.59,0H904.92c2.82-4.46,7.89-7.9,15.55-10.4,7.38-2.4,15.47-3.75,23.32-5.08,2.3-.39,4.61-.76,6.91-1.17A163.06,163.06,0,0,0,968.24,378c13.32-4,22-11.26,25.82-21.74,5.16-14.28,1.6-27.72-10.63-39.92-3.9-3.94-9.45-7.25-17.42-10.43-11.87-4.74-25.31-8.42-43.63-12l-7-1.33c-8-1.46-16.25-3-24.06-5.13-15.31-4.15-23.87-11.42-26.13-22.29-4.11-19.29.31-35,13.51-48.16,9.45-9.39,22.07-16.89,37.46-22.34,9.22-3.31,18.71-6.54,27.89-9.69,6.56-2.25,13.2-4.49,19.77-6.81a178,178,0,0,0,27.26-12.06,34.94,34.94,0,0,0,3.71-2.56,30.6,30.6,0,0,1,3.56-2.42v50.72a1.9,1.9,0,0,1-.78.15,9.37,9.37,0,0,1-1.61-.21l-.42,0c-2.5-.36-4.93-.78-7.39-1.17a223.89,223.89,0,0,0-23.75-3c-4-.21-7.77-.31-11.44-.31-19.69,0-35.67,3.44-48.79,10.48-13.87,7.5-21.21,17.25-21.84,29-.7,14.33,8.75,24.68,27.35,30a156.49,156.49,0,0,0,42.65,6,158.27,158.27,0,0,0,27.27-2.4c3.32-.6,6.56-1.41,9.68-2.19,2.12-.52,4.22-1,6.37-1.51l.47-.11a9.1,9.1,0,0,1,1.68-.26,1.14,1.14,0,0,1,.55.11V309.2c0,29.5,0,59,0,88.45a2.44,2.44,0,0,1-.16,1.2,4.83,4.83,0,0,1-1.21.08V400m0,0c2.62,0,3-.57,3-2.35q-.12-60.82,0-121.76a3.41,3.41,0,0,0-2.15-.71,12.14,12.14,0,0,0-2.66.45c-5.31,1.14-10.5,2.66-15.93,3.65a152.72,152.72,0,0,1-68.91-3.55c-19-5.39-27-15.74-26.33-28.93.59-11.78,8.17-21.16,21.22-28.2,14.41-7.77,30.74-10.27,47.77-10.27,3.75,0,7.5.13,11.32.34,10.47.57,20.63,2.58,30.86,4.14a18.91,18.91,0,0,0,2.43.29,3.71,3.71,0,0,0,2.38-.75V159.18c-4.14,1.38-6.49,4.19-9.92,6.15a176.86,176.86,0,0,1-27,11.93c-15.82,5.56-31.84,10.82-47.66,16.5-15.15,5.37-28.13,12.85-38,22.65-14.88,14.8-17.5,31.49-13.79,49,2.43,11.57,12,19,27.11,23.12C900.9,291.21,911.48,293,922,295c14.93,2.91,29.61,6.41,43.24,11.83,6.53,2.63,12.62,5.81,16.92,10.14,11.83,11.8,15.54,24.89,10.39,39.07-3.59,9.82-11.49,17-24.92,21a166,166,0,0,1-17.31,4.14c-10.27,1.85-20.82,3.18-30.51,6.31-7.73,2.58-14.14,6.41-17.18,12.46h47.18q23.57,0,47.11.05Z" transform="translate(0 0.33)"/><path class="cls-3" d="M20.56,139.92c-7.27,0-13.32-.16-18.91-.47V124.67a2.73,2.73,0,0,1,1.6-.37c.47,0,.94.06,1.6.08,2.15.24,4.3.5,6.45.76a175.15,175.15,0,0,0,20.08,1.56h.5c19.69,0,34.77-6.49,44.77-19.15a34.52,34.52,0,0,0,7.54-20.93c.27-10.92-2-20.12-6.8-28.15-5.23-8.68-14.1-14.7-26.29-17.93-7.85-2.14-16.4-3.29-27.73-3.7l-2.66-.11c-4.84-.18-9.88-.36-14.88-.36H4.31a4.75,4.75,0,0,1-2.66-.55V18.9c6.6-.36,13.2-.41,18.83-.41h6l6.06,0A261,261,0,0,1,75.28,21.8c5.12.81,10.51,1.95,15,4.82,6.25,3.8,7.85,9,9.06,14.39a105.17,105.17,0,0,1,1.84,14.72c.16,2.5.35,5,.62,7.46a95.2,95.2,0,0,1-.19,21.37c-2.74,23.3-16.49,39.54-42,49.67a85.68,85.68,0,0,1-30.74,5.63c-2.78,0-5.55.06-8.32.06m0,1.06c2.77,0,5.58,0,8.35,0a88.18,88.18,0,0,0,31.53-5.78c27.73-11,40.23-28.67,42.81-50.51a96.86,96.86,0,0,0,.2-21.53c-.82-7.43-.86-14.86-2.47-22.26-1.25-5.55-2.93-11-9.57-15-4.61-2.9-10-4.17-15.74-5.08a265.39,265.39,0,0,0-43.12-3.31c-4,0-8,0-12.07,0-6.8,0-13.6.08-20.43.52V36.21a6.13,6.13,0,0,0,4.26,1.23H5.83c5.82,0,11.6.26,17.46.46,9.34.34,18.44,1.23,27.19,3.63,11.91,3.15,20.43,9.07,25.43,17.33,5.31,8.81,6.91,18.17,6.68,27.73a33.61,33.61,0,0,1-7.35,20.46c-9.49,12-23.55,18.53-43.36,18.58h-.5c-8.91,0-17.54-1.38-26.29-2.29-.63,0-1.25-.1-1.84-.1a4.5,4.5,0,0,0-3.2,1v16.13c6.83.44,13.67.57,20.51.57Z" transform="translate(0 0.33)"/><path class="cls-3" d="M998.36,31.1A119.8,119.8,0,0,0,970.66,18c-5.74-1.85-11.75-3.23-17.54-4.58-2.57-.6-5.15-1.2-7.73-1.83L942.85,11A110.59,110.59,0,0,1,926.8,6.16a39.18,39.18,0,0,1-9.14-5.4h79.45c.62,0,1,0,1.09,0s.08,0,.08,0a1.54,1.54,0,0,1,.12.86c-.08,7.56,0,15.2,0,22.84V31.1m1.6,2.5c0-10.66-.08-21.37,0-32,0-1.72-.71-1.92-2.89-1.92H914.3a43,43,0,0,0,11.64,7.37c6,2.48,12.5,3.94,18.9,5.55,8.36,2.09,17,3.76,25.12,6.39a120.12,120.12,0,0,1,30,14.59Z" transform="translate(0 0.33)"/><path class="cls-3" d="M139.77,3.71V2.64a58.52,58.52,0,0,1-7.61-.52A9.19,9.19,0,0,1,128.52.76h24.77a48.36,48.36,0,0,1-13.52,1.88V3.71m0,0a50,50,0,0,0,19.89-4H125.2a11.24,11.24,0,0,0,6.64,3.46,58.1,58.1,0,0,0,7.93.55Z" transform="translate(0 0.33)"/><path class="cls-3" d="M810.86,90.45V89.38c-1.56,0-3.2-.08-4.84-.21-13-1-24.07-5.58-34.81-14.26a95,95,0,0,1-7.5-6.88,10.49,10.49,0,0,1-2.85-10.16c.78-3,4.45-4.64,8.48-6.1,8.43-2.94,18.24-4.46,30.66-4.72,8.94.21,18.36,1,26.48,5.16,15.4,8,14.77,21.9,8.36,28.46-5.66,5.84-13.51,8.71-24,8.71v1.07m0,0c10.23,0,19-2.63,25.35-9.2,6.84-7.07,7.23-21.61-8.79-29.87-8.2-4.25-17.58-5.16-27.34-5.4-10.86.24-21.56,1.39-31.49,4.85-4.06,1.49-8.43,3.29-9.29,6.86a11.26,11.26,0,0,0,3.05,10.92,98.25,98.25,0,0,0,7.65,7c9.61,7.79,21,13.45,35.78,14.65,1.72.13,3.44.21,5.08.21Z" transform="translate(0 0.33)"/><path class="cls-3" d="M575.24,295.7A19.87,19.87,0,0,1,561,289.75c-2.11-2-4.22-4-6.33-6-6.05-5.89-12.34-11.94-19.22-17.49a236.69,236.69,0,0,0-25.62-18.3c-4.3-2.66-8.87-5.13-13.28-7.56-6.72-3.72-13.71-7.53-19.81-12a68.83,68.83,0,0,1-15.43-15.33c-1.29-1.77-2.54-3.57-3.79-5.36-3.63-5.16-7.34-10.48-12.18-15.3A68.59,68.59,0,0,0,411.57,174c-5.51-1.27-11.17-2.39-16.64-3.46-7-1.38-14.22-2.82-21.14-4.62-9.45-2.47-21.44-6.15-30.62-12.87-10.27-7.53-16.41-16.63-18.75-27.81-2.15-9.85.47-18.64,7.89-26.9a95.2,95.2,0,0,1,11.87-10.68,246.38,246.38,0,0,0,28.29-26.74,178.32,178.32,0,0,1,14.1-14.13c6.52-5.81,16-9.15,26-9.15a45,45,0,0,1,9.88,1.1c17.16,3.75,30.28,11,40.12,22.1,2.78,3.18,5.39,6.49,7.93,9.72a152.72,152.72,0,0,0,13.87,15.95c9.49,9.1,21.17,16.45,31.37,22.47L519,110.8c10.39,6.1,21.13,12.38,31.41,18.82l2.38,1.49c8.28,5.16,16.87,10.5,26.79,14.49a87.46,87.46,0,0,0,32.62,6.33,90.35,90.35,0,0,0,11.52-.73,37.78,37.78,0,0,0,22.23-10.61,60.07,60.07,0,0,0,7-8.47l3-4.25c5.67-8.13,11.49-16.57,19-24.13a70.79,70.79,0,0,1,23.28-16.32,60.72,60.72,0,0,1,24-5.21,58.82,58.82,0,0,1,20.59,3.86c6.48,2.42,13,5.06,19.25,7.56,4.46,1.77,8.91,3.57,13.36,5.29a95.69,95.69,0,0,0,34.53,6.51c23,0,39.07-5.94,49.1-18.21,3.56-4.41,5.51-9.54,6.3-16.16.78-7.64,0-14.23-2.58-20.23-4.22-9.69-13.83-15.82-28.6-18.24a218.75,218.75,0,0,0-25.7-2.11l-4.69-.21c-3.91-.13-8-.16-11.83-.16-9.07-.05-18.44-.08-27.46-1.74-16.13-2.92-28.29-9.78-36.1-20.39-1.44-2-2.77-4.06-4.06-6.07-.23-.39-.47-.75-.7-1.15h30.7c.16.08.35.16.55.27A6.77,6.77,0,0,1,757,2.38c5,5.58,12.62,9.31,23.36,11.34a112.33,112.33,0,0,0,21.25,2A122.36,122.36,0,0,0,831,12.08c6.56-1.7,11.4-4.8,14.45-9.23A5.57,5.57,0,0,1,848.12.76h31.14a4.58,4.58,0,0,1,1.48,2.85c2.54,10.06,11.21,16.65,26.49,20.22,4.49,1,9,2,13.63,2.92,4.84,1,9.84,2.06,14.69,3.21,19.41,4.58,34.45,12.38,46,23.76,3.17,3.18,6.49,6.29,9.81,9.39l3.94,3.75a8.93,8.93,0,0,1,1.8,2.5,12.63,12.63,0,0,0,1.29,2v36.25c-12.62,7.25-27.07,15.8-39.77,25.57-6.64,5.16-13,10.53-19.29,15.74l-6.56,5.48a265.48,265.48,0,0,1-28.13,20.48l-5.47,3.36c-11.4,7-23.2,14.29-32.85,22.89-13.24,11.88-22,26-26,42-.4,1.51-.79,3-1.14,4.53-1.36,5.76-2.85,11.73-6.05,17.23-2,3.26-5.79,7.17-13.29,7.17a26.23,26.23,0,0,1-5-.52c-10-2-17.42-6.2-22.53-12.88-5-6.49-7.74-14-8.79-23.56-1.64-14.07-4.85-30.44-16.8-45.35-13.51-16.73-29.53-26.3-50.43-30.13a117.11,117.11,0,0,0-20.35-1.77,123.4,123.4,0,0,0-17.73,1.3c-14.3,2.19-22.11,8.19-24.5,18.87a101.8,101.8,0,0,0-2.14,23.2c.23,18.64-5.55,36.05-17.74,53.22l-2.22,3.18c-5.12,7.3-10.44,14.86-17.54,21.48-8.13,7.61-19,12.82-33.13,15.95a24.19,24.19,0,0,1-5.62.68m0,1a29.18,29.18,0,0,0,6.17-.68c13.59-3,25.16-8.21,33.9-16.37,8.21-7.66,13.87-16.31,19.93-24.81,12-16.89,18.12-34.72,17.85-53.72a99.72,99.72,0,0,1,2.15-23c2.26-10.09,9.21-15.85,23.2-18a118.73,118.73,0,0,1,17.42-1.28,112.28,112.28,0,0,1,19.92,1.75c23.13,4.22,38.05,15.43,49.46,29.6,11.17,13.95,14.8,29.25,16.56,44.91.94,8.37,3.28,16.45,9,24,5.31,6.88,13.09,11.37,23.52,13.42a26.88,26.88,0,0,0,5.46.55c6.68,0,11.8-2.79,14.77-7.82,4.14-7,5.31-14.59,7.27-22,3.9-15.35,12.18-29.27,25.78-41.49,11-9.88,24.8-17.85,38.12-26.12A262.28,262.28,0,0,0,934,155.08c8.6-7.11,17-14.28,25.86-21.18,12.23-9.47,26.09-17.73,40.12-25.78v-37c-1.29-1.54-1.76-3.36-3.4-4.87-4.61-4.38-9.26-8.68-13.71-13.11C971,41.4,955.31,33.5,936.09,28.94c-9.41-2.22-19-4-28.35-6.13-13.56-3.15-22.82-9-25.4-19.39C882,2,881.6.63,879.92-.3H847.7A7.32,7.32,0,0,0,844,2.43c-2.81,4.17-7.38,7.07-13.51,8.66a120.58,120.58,0,0,1-28.83,3.59,110.49,110.49,0,0,1-20.78-2c-9.18-1.74-17.19-5-22.46-10.87A12.41,12.41,0,0,0,754.73-.3H721.06c1.91,2.92,3.71,5.89,5.82,8.75,8,10.87,20.23,17.91,37.11,21,13,2.4,26.4,1.46,39.6,1.93,10.16.47,20.24.67,30.08,2.29,13.75,2.24,23.25,7.79,27.42,17.49,2.82,6.51,3.25,13.21,2.5,19.86a29.11,29.11,0,0,1-6.05,15.74c-10.66,13.06-27.7,17.65-47.7,17.65h-.15A94.85,94.85,0,0,1,776.09,98c-10.89-4.25-21.6-8.73-32.61-12.88a60.44,60.44,0,0,0-21.37-4,61.79,61.79,0,0,0-24.84,5.4,73.12,73.12,0,0,0-23.79,16.63c-8.79,8.91-15.2,18.79-22,28.51a60.86,60.86,0,0,1-6.92,8.31,36,36,0,0,1-21.21,10.17,91.66,91.66,0,0,1-11.21.7,85.09,85.09,0,0,1-31.84-6.17c-10.62-4.31-19.68-10.17-28.86-15.85-11.37-7.09-23-13.89-34.65-20.72-11.4-6.7-22.26-13.74-31.17-22.26-8.36-8-14.3-17.15-21.72-25.62-9.84-11.13-23.36-18.71-41-22.57a48.52,48.52,0,0,0-10.39-1.12c-10.46,0-20.39,3.44-27.26,9.54A181.13,181.13,0,0,0,371.1,60.32,247.07,247.07,0,0,1,343,86.93a95.69,95.69,0,0,0-12,10.82c-7.61,8.44-10.27,17.61-8.12,27.6,2.3,10.89,8.36,20.43,19.18,28.38,8.63,6.31,19.65,10.11,31.21,13.14C385.59,170.1,398.48,172,411,175a66.86,66.86,0,0,1,33,18c6.4,6.36,10.78,13.6,15.86,20.53a70,70,0,0,0,15.7,15.59c10.12,7.35,22.31,12.88,33.17,19.57a240.39,240.39,0,0,1,25.5,18.2c9.18,7.4,17.07,15.55,25.43,23.48a21.83,21.83,0,0,0,15.55,6.36Z" transform="translate(0 0.33)"/><path class="cls-3" d="M141,290.33c-13.33,0-26.92-2.82-41.57-8.55-7.15-2.87-14.06-6.21-20.7-9.44-4.92-2.39-10-4.84-15.16-7.09-15.89-7-34.18-11.54-59.18-14.85L1.69,250l0,0V223.06c9.65,3.78,19.69,7.19,29.41,10.5,5.82,2,11.64,4,17.39,6,13.28,4.76,26.05,11,41.48,20.25,11.09,6.69,22.27,13,36.41,16.39a63.43,63.43,0,0,0,14.41,1.72c16.25,0,29.18-7,35.47-19.18,5-9.85,5.27-20.23.82-32.61a90.61,90.61,0,0,1-5.47-38.86c1.37-15.74,2.85-29.92,6.84-44,2.11-7.33,6.48-14.57,13-21.5,1.37-1.49,2.78-3,4.18-4.46,6.41-6.7,13-13.63,17.78-21.24,4.06-6.57,7.89-13.32,11.6-19.84L227.35,72c7-12.3,19.41-21.14,36.87-26.17s32-11.41,44.77-19.62c10.7-7,21.76-14.76,29.73-24.48a5,5,0,0,0,.66-.94h42.93c-2.89,6.68-8.59,12.23-17.42,17l-5.2,2.76c-12.5,6.64-25.47,13.5-36.44,21.92a214.51,214.51,0,0,0-22.58,19.94c-7.93,8-18.12,15.16-31.21,21.94-12.73,6.57-23,14.73-32.34,22.49-7.78,6.39-15.59,12.83-23.25,19.32-13.12,11-21.29,24.08-25,40a118,118,0,0,0-3,20.48c-.51,9.39,1.25,19.11,5.42,30.6,3,8.13,5.67,16.89,4.77,26.17-1.41,15.22-7.89,27.36-19.92,37.06-6.6,5.42-15.74,8.65-27.11,9.59-2.7.23-5.43.37-8.12.37m0,1q4.1,0,8.32-.34c11.13-.94,20.85-4,28.16-10,13.2-10.69,19-23.67,20.27-37.69.86-9-1.6-17.77-4.8-26.48-3.64-9.9-5.94-20-5.39-30.29a120.18,120.18,0,0,1,2.93-20.38c3.43-14.7,11.05-28,24.68-39.48,7.66-6.47,15.47-12.9,23.25-19.29,9.84-8.16,19.88-16,32.07-22.34S293.29,71.71,302,62.93a215.56,215.56,0,0,1,22.46-19.84c12.34-9.49,27-16.86,41.44-24.55,9-4.82,15.59-10.95,18.48-18.84H338.25a9.43,9.43,0,0,1-.9,1.46c-7.7,9.38-18.28,17-29.49,24.26-13.17,8.47-28,14.7-44.26,19.39-17.85,5.16-30.51,14-37.73,26.79-4.57,8-9.07,16.11-14,24.06-5.74,9.17-14.06,17.23-21.83,25.54-6.29,6.7-10.94,14-13.21,21.87-4.14,14.54-5.58,29.37-6.87,44.15a90.77,90.77,0,0,0,5.51,39.15c3.82,10.68,4.64,21.32-.79,32-6.05,11.83-18.59,18.48-33.94,18.48a63,63,0,0,1-13.87-1.67c-13.86-3.34-25-9.64-35.9-16.21-13-7.77-26.56-14.91-41.79-20.38C32.86,232.78,16,227.57.05,221.18v29.69l4,.57c20.59,2.71,40.55,6.8,58.63,14.7,12.15,5.32,23.4,11.57,35.9,16.52,13.28,5.24,27.27,8.71,42.39,8.71Z" transform="translate(0 0.33)"/><path class="cls-3" d="M1.65,181.1V158.58c23-1.51,49.18-4.12,71.25-14.83,27.58-13.45,44-31.85,48.83-54.66.89-4.38,1.56-8.86,2.22-13.21A151.69,151.69,0,0,1,127.59,57c3.24-11.55,8.94-19.65,17.89-25.52,6.68-4.27,14.57-7.61,22.26-10.84l2.31-1c12.73-5.34,21.32-10.5,27.85-16.81A9.57,9.57,0,0,0,199.34,1s.08-.13.12-.19H223.6c-3.16,10.61-12.11,18.87-28.09,25.91-2.14.94-4.29,1.83-6.44,2.74-7.7,3.28-15.66,6.64-22.7,11.05C159.07,45,153.56,51,149,59.35c-4.3,7.77-6.13,16-7.93,24-.43,2-.86,4-1.33,5.92-2.54,10.29-5.74,21.14-14.72,30.36-8.44,8.71-19.46,16-30.08,23l-.78.52C83.76,150,71.61,155.76,57,160.84c-3.59,1.26-7.19,2.48-10.78,3.73-14.61,5.06-29.69,10.27-44,16.32a4.5,4.5,0,0,1-.62.21m-1.6,1.56a24.39,24.39,0,0,0,3.08-.89c17.66-7.45,36.25-13.55,54.65-20,13.6-4.74,26.29-10.53,37.54-17.9s22.34-14.68,31.05-23.69c9.07-9.31,12.31-19.92,15-30.76,2.42-10,3.9-20.15,9.18-29.71a47,47,0,0,1,16.95-18.48c8.83-5.52,19-9.36,28.9-13.68C211.3,21,222.31,12.49,225.51-.3H198.44a17,17,0,0,1-1.87,2.52c-7.31,7-16.91,12.12-27.38,16.5-8.64,3.65-17.39,7.17-24.81,12-10.7,7-15.58,16.21-18.36,26.06-3,10.61-3.63,21.53-5.9,32.19C115.24,112,98.64,129.86,72,142.89,50.4,153.34,25.36,156,.05,157.61v25Z" transform="translate(0 0.33)"/><path class="cls-3" d="M231.18,398.88a81.89,81.89,0,0,1,13.94-25.31c3.48-4.32,7.07-8.57,10.63-12.85q4.68-5.5,9.26-11.13c1.52-1.82,3-3.7,4.49-5.58,4.33-5.42,8.79-11,13.79-16.23a72.89,72.89,0,0,1,35-20.62A65.59,65.59,0,0,1,334.81,305c15.51,0,28.75,5.86,36.29,16.08,4.92,6.52,7.93,14.15,9.41,24,.74,4.9,1.29,9.8,1.84,14.7.58,5.1,1.17,10.39,1.95,15.58.86,5.53,2.11,11.13,3.28,16.52.51,2.32,1.06,4.67,1.53,7H364V380.11a112.86,112.86,0,0,1,.78-12.59,93.52,93.52,0,0,0,.62-16c-.62-8.18-2.22-16.84-9.8-24.44-6.13-6.18-15.12-9.6-25.31-9.6a49.21,49.21,0,0,0-18.79,3.84,52.35,52.35,0,0,0-21.84,17.22c-2.73,3.7-5.5,7.38-8.24,11-8.16,11-16.64,22.34-25.43,33.31a41.59,41.59,0,0,0-8.47,16H231.18m-2,1.07h19.72a40.27,40.27,0,0,1,8.52-16.53C269.15,368.78,280,353.87,291.14,339a50.41,50.41,0,0,1,21.25-16.81,47,47,0,0,1,17.93-3.65c9.14,0,17.85,2.89,24,9.07,7.15,7.19,8.91,15.48,9.53,23.92.71,9.54-1.52,19.06-1.4,28.57V400h28.51c-1.68-8.24-3.75-16.45-5-24.69-1.52-10.08-2.3-20.19-3.79-30.28-1.28-8.47-3.82-16.76-9.57-24.37-8.32-11.26-22.57-16.68-37.73-16.68a68,68,0,0,0-17.15,2.24,74.81,74.81,0,0,0-35.74,21c-6.72,7-12.34,14.57-18.32,21.89-6.56,8-13.36,15.92-19.88,23.95A82.07,82.07,0,0,0,229.19,400Z" transform="translate(0 0.33)"/><path class="cls-3" d="M727.11,398.88c10-15.59,27.27-24.68,51.33-27.06,3.9-.39,8-.57,12.58-.57,6.87,0,13.86.45,20.62.86l2,.11c2.35.15,4.69.26,7,.41,7.7.42,15.67.86,23.4,1.72,17,1.93,19.14,3.34,22.82,15.28a37.45,37.45,0,0,1,1.87,9.25H838.59a31.52,31.52,0,0,1-5.07-2.89,29.58,29.58,0,0,0-6.68-3.63c-11.06-4-21.29-5.91-31.22-5.91a72.9,72.9,0,0,0-26,4.79,26.89,26.89,0,0,0-9,5.16,10.76,10.76,0,0,1-4.06,2.48H727.11M724.73,400H757a12.8,12.8,0,0,0,5-2.92,25.16,25.16,0,0,1,8.48-4.87,70.28,70.28,0,0,1,25.19-4.62,90.16,90.16,0,0,1,30.47,5.76c4.69,1.67,7.54,4.87,12.07,6.65h32.23a34.93,34.93,0,0,0-1.95-10.53c-3.79-12.41-6.37-14.13-24.14-16.14-10.08-1.12-20.32-1.51-30.47-2.11-7.62-.47-15.2-1-22.81-1-4.26,0-8.52.16-12.82.58-25.54,2.52-43.39,12.3-53.47,29.19Z" transform="translate(0 0.33)"/><path class="cls-3" d="M2.67,398.93c-.55,0-.83,0-.94,0h0a1.28,1.28,0,0,1-.08-.74c.12-1.87.12-3.77.08-5.68,0-.46,0-.93,0-1.38,4.37,0,8.75-.23,13-.41,4.61-.21,9.33-.42,14-.42h.63c11.05,0,23.28,1.12,31.52,8.6H48.48l-15.31,0q-15.29,0-30.5.08m0,1.07C12.82,400,23,400,33.17,400H63.8c-8.21-9-21.1-10.71-34.53-10.74h-.63c-9.41,0-18.75.83-28.16.83H.05c0,2.69.15,5.4,0,8.08C-.07,399.66.48,400,2.67,400Z" transform="translate(0 0.33)"/><path class="cls-3" d="M896.72,367.6v-1.07c-3.13,0-6.17-.13-9.14-.36-7.82-.7-12.42-3.23-14.84-8.29a49.17,49.17,0,0,1-4.38-15.22c-.08-.91-.24-1.82-.39-2.71a15,15,0,0,1-.31-6.15,28.57,28.57,0,0,1,2.1-13.24c3.4-8.32,6.76-10.48,18.83-12.3a53.21,53.21,0,0,1,7.82-.52c6.67,0,13.2,1,20.89,2.66,11.45,2.34,19.62,5.47,25.67,9.9,8.95,6.46,13.59,14.49,12.65,22.05-.78,6.28-5.38,11.78-13.28,15.95a57.57,57.57,0,0,1-16.72,5.37,173.34,173.34,0,0,1-28.9,2.86v1.07m0,0a174.52,174.52,0,0,0,29.3-2.89,58.86,58.86,0,0,0,17.26-5.58c20.23-10.55,16.92-28,.86-39.56-7.19-5.21-16.56-8.18-26.37-10.22a105.23,105.23,0,0,0-21.36-2.71,58,58,0,0,0-8.17.57c-12.62,1.88-16.44,4.33-20,13.09A30,30,0,0,0,866,333.85c-.63,2.71.39,5.79.78,8.89a49.35,49.35,0,0,0,4.37,15.48c2.74,5.6,8,8.26,16.17,9,3.17.26,6.29.39,9.38.39Z" transform="translate(0 0.33)"/><path class="cls-3" d="M543.76,374.77c-9.85,0-21.49-6-24-12.48l-.19-.6a11.82,11.82,0,0,1-1.22-5.27c.4-5.06,2.9-10.06,7.9-15.69a43,43,0,0,1,19.64-13,15.37,15.37,0,0,1,4.85-.88,8.15,8.15,0,0,1,6.67,3.33c3.52,4.23,4.66,9.15,5.79,13.92l.07.36c1.8,7.72.86,14.55-2.81,20.91a19,19,0,0,1-16.71,9.38m0,1.1a20.9,20.9,0,0,0,9.37-2,19.63,19.63,0,0,0,8.83-8.05c4.06-6.93,4.61-14.1,2.89-21.45-1.17-5.06-2.31-10.17-6-14.65a9.84,9.84,0,0,0-8.08-3.91,19.1,19.1,0,0,0-5.55,1,44.92,44.92,0,0,0-20.35,13.4c-4.38,5-7.62,10.27-8.05,16.21-.23,2.14.66,4.12,1.45,6.18,2.53,6.54,14.49,13.32,25.51,13.32Z" transform="translate(0 0.33)"/><path class="cls-3" d="M141.1,277.24a58.65,58.65,0,0,1-11.44-1.2,98.24,98.24,0,0,1-33.91-14c-19.69-12.46-42.3-22.62-69.18-31C20,229,13,226.47,5.17,223.34a8.18,8.18,0,0,1-3.52-2.42V183a12.2,12.2,0,0,1,4.1-2.53c16.45-6.69,34-12.71,49-17.82,15.59-5.27,28.48-11.24,39.5-18.25,8.82-5.65,19-12.46,27.73-20.17A55.79,55.79,0,0,0,139,97.2c1.21-4.09,2.15-8.26,3.09-12.3a149.38,149.38,0,0,1,4.76-17.54c3.79-10.48,9.3-18.14,17.27-24.14,6-4.56,13.63-8,20.9-11.13l4.49-1.87c6.33-2.64,12.89-5.37,18.51-9,8.13-5.24,13.4-11.1,16.14-18A5.32,5.32,0,0,1,226.1.76h33.36a6.14,6.14,0,0,1,2.73,2.12c2.46,3.49,6.84,5.47,12.07,5.47a21.72,21.72,0,0,0,4.42-.47,35.31,35.31,0,0,0,11.76-4.35l.58-.34A28.56,28.56,0,0,1,296.14.76h41.21c.27.5-.08.94-.86,1.78-.2.23-.39.44-.59.65A69.39,69.39,0,0,1,324,14.34c-16.37,12.72-31.8,21.27-48.51,26.93l-2.66.88c-3.48,1.15-7,2.32-10.63,3.37C244.34,50.7,232,60.16,224.3,74.47l-.89,1.72c-3.52,6.52-7.15,13.24-11.41,19.65-5.59,8.6-12.85,16.34-19.88,23.41a63,63,0,0,0-17.82,35.39c-1.44,9.1-3.08,19.84-4.06,30.63a91.55,91.55,0,0,0,4.92,39.53c2.19,6,4.14,12.59,3.64,19.29-.9,11.29-5.2,19.39-13.52,25.54a39.7,39.7,0,0,1-24.18,7.61m0,1.05c9.45,0,18.05-2.51,25.35-8,9.85-7.25,13.17-16.5,14-26.2.51-6.67-1.37-13.19-3.67-19.6a90,90,0,0,1-4.89-39.22c.94-10.22,2.43-20.33,4.07-30.57,2.07-12.62,7.11-24.37,17.53-34.9,7.47-7.51,14.57-15.17,20-23.59,4.61-7,8.44-14.2,12.35-21.42,6.95-13,18.47-23,36.95-28.33,4.53-1.33,8.91-2.82,13.36-4.28,19.14-6.46,34.8-16.13,49-27.18A72.51,72.51,0,0,0,337.31,3.71c.94-1.15,2.81-2.4.94-4H295.79a32.7,32.7,0,0,0-6.37,3,33.06,33.06,0,0,1-11.17,4.17,19.2,19.2,0,0,1-4,.42c-4.49,0-8.39-1.67-10.62-4.85A7.83,7.83,0,0,0,259.93-.3H225.51a6,6,0,0,0-2.85,3.23c-2.77,6.9-8.2,12.64-15.7,17.49-6.84,4.43-14.92,7.42-22.77,10.79-7.66,3.28-15.16,6.69-21.25,11.31-9.22,6.93-14.3,15.45-17.62,24.58-3.55,9.82-5,20-7.85,29.89a54.85,54.85,0,0,1-16.8,26.56c-8.28,7.32-17.73,13.76-27.54,20-11.68,7.45-25,13.29-39.1,18.06-16.6,5.63-33.12,11.37-49.1,17.88a13.21,13.21,0,0,0-4.88,3.13v38.52a9.16,9.16,0,0,0,4.29,3c7,2.81,14.22,5.47,21.57,7.74,25.11,7.85,48.2,17.8,68.75,30.83a100.9,100.9,0,0,0,34.53,14.29,63.88,63.88,0,0,0,11.91,1.2Z" transform="translate(0 0.33)"/><path class="cls-3" d="M249.58,398.88c-.55-.44-.43-1,0-2.19,2.53-6.44,6.56-12.8,12.69-20.1,8.75-10.52,16.33-20.53,23.16-30.57,5.28-7.74,10.51-13.45,16.45-17.93,8.67-6.54,17.89-9.72,28.12-9.72a45.6,45.6,0,0,1,4.65.21c9.07.86,16.41,4.59,21.8,11.1,4.53,5.58,6.91,12.25,7.46,21.06a114.4,114.4,0,0,1-.78,18.32c-.16,1.54-.27,3.1-.43,4.67-.35,4.64-.27,9.38-.2,14,0,2.71.08,5.47,0,8.18v.58c0,1.09-.11,1.87-.78,2.42H328.68a1.57,1.57,0,0,1-.51-1.64,94,94,0,0,1,5.19-21.58,122.47,122.47,0,0,0,5.16-17.94,15.67,15.67,0,0,0-2.73-12.45,11.68,11.68,0,0,0-9.69-4.64,17.63,17.63,0,0,0-6.06,1.15,21.12,21.12,0,0,0-8.67,6.25,51.91,51.91,0,0,0-8.28,12.35c-5.31,10.35-12.85,20-20.23,28.91a62.92,62.92,0,0,0-5.24,7.3,5.3,5.3,0,0,1-2.73,2.29H249.58m-.67,1.07h26.41a7.1,7.1,0,0,0,3.79-2.92,55.63,55.63,0,0,1,5.15-7.22c7.74-9.36,15.08-18.82,20.35-29.06a51,51,0,0,1,8.13-12.17,19.42,19.42,0,0,1,8.09-5.87,15.23,15.23,0,0,1,5.27-1,9.82,9.82,0,0,1,8.24,4,14.74,14.74,0,0,1,2.58,11.88,120.85,120.85,0,0,1-5.12,17.8,95.38,95.38,0,0,0-5.23,21.74A2.55,2.55,0,0,0,328,400h34.46c1.91-1,1.68-2.56,1.75-4,.12-7.38-.39-14.78.16-22.13.67-7.71,1.72-15.43,1.21-23.09-.47-7.51-2.26-14.91-7.65-21.5-5.24-6.31-12.62-10.69-23-11.68-1.68-.16-3.28-.23-4.89-.23a47.52,47.52,0,0,0-29.33,10.11A74.76,74.76,0,0,0,284,345.58c-7.11,10.43-14.84,20.54-23.13,30.49-5.35,6.39-10,13.09-12.85,20.33-.5,1.33-.93,2.56.86,3.55Z" transform="translate(0 0.33)"/><path class="cls-3" d="M800.39,15.91V14.84a96,96,0,0,1-18.2-1.62C769.92,10.93,762,7,757.23.76h88.24c-4,7-11.72,10.87-25,12.65a156.74,156.74,0,0,1-20.08,1.43v1.07m0,0a158.86,158.86,0,0,0,20.39-1.46C833.36,12.78,843.36,8.92,847.7-.3h-93c5.35,8.31,15.35,12.38,27,14.54a100.72,100.72,0,0,0,18.67,1.67Z" transform="translate(0 0.33)"/><path class="cls-3" d="M759.81,398.88c7.11-7.17,17.93-10.92,33-11.39,1-.05,2.07-.05,3.09-.05,13.16,0,25,2.68,35.12,8a15.56,15.56,0,0,1,4.41,3.47H759.81M757,400h81.21a18.24,18.24,0,0,0-6.17-5.37c-10.86-5.68-23-8.21-36.09-8.21-1.06,0-2.07,0-3.16.05-14.81.47-27.62,4-35.79,13.53Z" transform="translate(0 0.33)"/><path class="cls-3" d="M575.63,255.66c-10.86,0-20-3.72-29.22-7.87-11.68-5.42-22.65-11.83-33.2-18.06l-4.81-2.82a103.09,103.09,0,0,1-35.74-33.54c-6.52-9.88-13.44-17.23-21.76-23.14-9.64-6.81-20.94-11.73-34.53-15.07C411.8,154,407.15,153,402.62,152c-6.05-1.27-12.26-2.58-18.2-4.3-13.87-3.93-21.13-9.38-23.59-17.61-1.53-5.09-.24-10.25,4.18-16.74,10.07-14.85,19.88-26.45,30.93-36.48a40.21,40.21,0,0,1,17.19-9.23,28.5,28.5,0,0,1,7-.91c5.08,0,10.16,1.43,15.94,4.51,5.16,2.71,8.9,6.54,12.54,10.21l.46.47C459.22,92.51,473,102.07,492.35,112c18.12,9.33,33,18.5,45.55,28.09,5.93,4.51,12,8.84,18.59,13.66a163.23,163.23,0,0,0,38.82,19.94c4,1.46,8.13,3.1,13,5.16,9.3,3.94,15.16,10.06,18.05,18.71,5.86,17.83-1,34.09-20.43,48.38a50.05,50.05,0,0,1-29.65,9.69h-.62m0,1.07h.7a52,52,0,0,0,30.78-10.06c18.67-13.74,27.11-30.1,20.78-49.29-2.65-8.07-8.28-15-18.75-19.41-4.29-1.83-8.59-3.57-13.08-5.19a160.31,160.31,0,0,1-38.4-19.73c-6.21-4.48-12.46-9-18.56-13.63-13.78-10.56-29.33-19.76-45.82-28.23C477,102.78,462,93.37,450.43,81.38c-3.9-4-7.77-8-13.32-10.95-5.23-2.79-10.82-4.74-16.95-4.74a30.21,30.21,0,0,0-7.62,1,41.89,41.89,0,0,0-17.89,9.59c-12.42,11.28-22.34,23.74-31.09,36.67-3.71,5.42-6.17,11.21-4.3,17.38,2.89,9.73,12.39,14.94,24.53,18.41,10.47,3,21.41,4.74,32,7.42,12.82,3.16,24.14,7.93,33.91,14.81,9.34,6.64,15.94,14.49,21.49,22.85a104.52,104.52,0,0,0,36.13,33.91c12.42,7.25,24.65,14.7,38.16,20.93,9.18,4.17,18.71,8.08,30.12,8.08Z" transform="translate(0 0.33)"/><path class="cls-3" d="M814.92,212.55a10.47,10.47,0,0,1-6.4-2.34c-5.08-3.65-8.6-8-12.27-12.54l-1.68-2.06c-8.71-10.55-16.49-19.21-24.49-27.23-14-13.89-30.78-23-51.37-27.89a72.77,72.77,0,0,1-15.35-5.27c-6.13-3-8.67-7.68-6.79-12.61,3.55-9.41,17.46-17,31-17,8.59.19,16.64,2.27,24,4.49,10.93,3.26,22.26,6.64,34.52,7.71,7,.6,13.79.91,20.16.91,16.72,0,31.56-2.08,45.31-6.38,17.82-5.63,29.3-15.82,35.08-31.12q1.23-3.28,2.34-6.57c1.49-4.19,3-8.55,4.89-12.77,5.07-11.28,17.85-13,25-13a51.24,51.24,0,0,1,8.32.7c20.47,3.34,35.11,15.36,38.16,31.36,1.4,7.35-1.72,14.33-10.15,22.67-8,7.87-16.8,15.49-25.32,22.86-6.09,5.27-12.38,10.71-18.32,16.21-11,10.14-24,19.24-36.52,28.07-3.28,2.27-6.49,4.54-9.73,6.83-10.74,7.79-20.59,16-29.77,23.69l-2,1.67c-3.83,3.31-7.81,6.72-13.43,8.65a16.71,16.71,0,0,1-5.24,1m0,1.1a19.26,19.26,0,0,0,6-1.15c6.91-2.34,11.25-6.67,15.94-10.58,9.57-8.08,19.25-16.08,29.68-23.64,15.9-11.34,32.5-22.23,46.37-35,14.3-13.22,30-25.57,43.67-39.1,7-6.9,12.15-14.49,10.39-23.4-2.89-15.07-16.37-28.51-39.33-32.27a54.46,54.46,0,0,0-8.71-.73c-11.45,0-22.19,4-26.57,13.74-2.89,6.44-4.84,12.93-7.26,19.39-5.16,13.68-15.63,24.52-34.22,30.41-14.38,4.51-29.38,6.29-44.61,6.29-6.6,0-13.24-.32-19.92-.92-12-1-23.05-4.32-34.1-7.61-7.85-2.37-15.9-4.4-24.61-4.58-14.22,0-28.87,8-32.58,17.85-2.07,5.42.78,10.53,7.38,13.73a75.06,75.06,0,0,0,15.79,5.43c21.28,5,37.65,14.64,50.54,27.47,8.75,8.78,16.76,17.88,24.41,27.15,4.26,5.19,8.17,10.51,14.18,14.81a12.51,12.51,0,0,0,7.58,2.71Z" transform="translate(0 0.33)"/><path class="cls-3" d="M147,398.88c-5.39-14.94-18-26.72-31.52-38.44A159.32,159.32,0,0,1,98,343.34a24.73,24.73,0,0,1-5.59-11.57c-1-5.92,5.66-9,9.77-10.38,6.6-2.13,13.9-2.68,21.21-3.26,5.11-.38,10.39-.65,15.47-.91,11.32-.57,23-1.14,34.37-3.23a73.8,73.8,0,0,0,25.16-9.23,42.43,42.43,0,0,0,11.29-11c7.92-10.85,12.77-22.68,17.49-34.15l1.41-3.49a100.22,100.22,0,0,0,7.07-24.37,38.82,38.82,0,0,0-1.8-18.11c-.7-2.09-1.48-4.17-2.22-6.26-1.68-4.66-3.4-9.48-4.69-14.23-2.89-10.79-1.64-20.17,3.87-28.69a39.21,39.21,0,0,1,32-17.28c.47,0,.94,0,1.4,0a36.48,36.48,0,0,1,20.51,7c4.89,3.39,9.69,7,14.34,10.43,2.07,1.56,4.18,3.12,6.29,4.69,9.57,7,21.29,13,35.86,18.35l7.85,2.86c7.34,2.69,14.92,5.45,22.15,8.42a62.46,62.46,0,0,1,16.13,9.54c5.62,4.74,8,10.69,7.34,18.71-.54,7.48-3.28,15-8.9,24.48-5.78,9.67-15.47,15.87-28.87,18.45-16.33,3.21-34.84,6.8-51.41,13.32a221.91,221.91,0,0,0-33.9,16.68c-20.71,12.56-35.28,28.54-48.4,43.83a347.18,347.18,0,0,0-23.44,30.14c-6.29,9.25-10.43,17.14-12.89,24.73H147M145.75,400h42.42c2.77-8.89,7.5-17.2,13.05-25.36a351.35,351.35,0,0,1,23.36-30c13.63-15.85,28-31.36,48.12-43.58a217.06,217.06,0,0,1,33.63-16.52c16.06-6.31,33.52-9.8,51.06-13.25,14.49-2.76,24.14-9.43,29.88-19.07,4.73-7.93,8.4-16.06,9-24.81.55-7.17-1.05-13.82-7.69-19.45a65,65,0,0,0-16.52-9.77c-9.85-4-20-7.59-30.08-11.31-13.09-4.8-25.16-10.58-35.47-18.14-6.84-5-13.56-10.22-20.63-15.12a38.9,38.9,0,0,0-21.6-7.38c-.5,0-1,0-1.48,0-14.92,0-27.54,8.57-33.52,17.93s-6.64,19.31-3.94,29.3c1.83,6.88,4.57,13.68,6.91,20.51a37.83,37.83,0,0,1,1.76,17.8,101.77,101.77,0,0,1-7,24.18c-5.28,12.75-10.16,25.6-18.83,37.46A40.11,40.11,0,0,1,197.27,304a72.11,72.11,0,0,1-24.49,9c-16.25,3-33.05,2.87-49.61,4.12-7.38.57-14.8,1.14-21.72,3.38-6,1.93-11.68,5.64-10.66,11.45a25.45,25.45,0,0,0,5.78,11.93,151.79,151.79,0,0,0,17.66,17.23c13.51,11.75,26.32,23.72,31.52,38.89Z" transform="translate(0 0.33)"/><path class="cls-3" d="M585.78,100.22c-.74,0-1.48,0-2.19-.08A113,113,0,0,1,534.3,84.87c-18.16-10.42-25.74-25.15-31.25-39.51l-2.65-6.88c-4.77-12.3-9.69-25-12.9-37.72H627.35a39.13,39.13,0,0,1-5.94,7.12c-.74.76-1.49,1.49-2.19,2.27a59.48,59.48,0,0,0-14.61,29.32c-1.33,6.62-2.58,13.71-2.19,20.9.2,3.49.63,7,1,10.45.31,2.9.66,5.81.86,8.73.47,6.86.23,12.9-7.11,17.6a21,21,0,0,1-11.41,3.07m0,1.07a23,23,0,0,0,12.5-3.36c8.05-5.14,8.05-11.73,7.66-18.43-.51-6.44-1.56-12.8-2-19.18-.32-6.91.78-13.81,2.22-20.7a58.71,58.71,0,0,1,14.38-28.93c3.28-3.51,7.15-6.85,9-11H485.4a6.06,6.06,0,0,1,.46,1c3.83,15.2,9.92,30,15.63,44.91,5.86,15.25,13.75,29.71,31.76,40.06a116.13,116.13,0,0,0,50.19,15.53c.78.05,1.56.08,2.34.08Z" transform="translate(0 0.33)"/><path class="cls-3" d="M952.19,281.78c-17,0-32.11-2.4-46.33-7.3-15.31-5.24-23.67-16.84-21.88-30.29,2.31-16.94,24-30,43.21-33.62a140.42,140.42,0,0,1,26.37-2.39A194.27,194.27,0,0,1,986,211.09c4.1.68,8.21,1.41,12.35,2.09V275.1c-3.09.66-6.13,1.41-9.07,2.14a127.68,127.68,0,0,1-18,3.57c-6.57.65-13,1-19.14,1m0,1q9.6,0,19.37-.94c9.85-1,18.87-4.06,28.4-6V212.35c-4.53-.76-9-1.52-13.55-2.3a200.11,200.11,0,0,0-32.85-3,144,144,0,0,0-26.8,2.45c-21.52,4.12-42.11,18-44.34,34.56-1.8,13.08,6.1,25.65,22.74,31.35,15.08,5.22,30.86,7.38,47,7.38Z" transform="translate(0 0.33)"/><path class="cls-3" d="M31.18,126A144,144,0,0,1,13,124.59c-3.71-.49-7.5-.86-11.21-1.22H1.65V104.91a1.56,1.56,0,0,1,.82-.21,8.41,8.41,0,0,1,1.76.29l.43.08a187,187,0,0,0,21.17,3.6c2.23.2,4.22.31,6.05.31a38.55,38.55,0,0,0,4.69-.26c13.71-1.49,22.85-8.94,23.36-19,.78-16.13-13.36-28.28-36-31a114.76,114.76,0,0,0-12.77-.5H9.23c-1.25,0-2.5,0-3.71,0H5c-1.6-.06-2.58-.08-3.32-.6V37.28H3.29c15.23,0,27.89.18,40.66,2.53,18.4,3.31,29.93,11.52,35.2,25.07C84,77.47,84.38,88.39,80.36,98.27,74.15,113.85,60.59,123,40.09,125.5a74.42,74.42,0,0,1-8.91.5m0,1.07a78,78,0,0,0,9.18-.52c22.46-2.72,35.59-13.06,41.56-28C86.49,87.27,85,75.83,80.71,64.62,75.44,51.07,63.64,42.23,44.38,38.76c-13.51-2.47-27.26-2.55-41.09-2.55H.05V58.05c1.4,1.33,3.4,1.25,5.39,1.3,1.25,0,2.5,0,3.79,0h1.91a118.3,118.3,0,0,1,12.5.47c21.72,2.58,35.43,14.28,34.69,29.89-.47,9.54-9,16.5-22,17.94a43,43,0,0,1-4.42.23c-1.95,0-3.86-.13-5.82-.31a187.35,187.35,0,0,1-20.93-3.55,14.08,14.08,0,0,0-2.66-.41,3.51,3.51,0,0,0-2.42.86v19.78c4.26.41,8.47.81,12.65,1.35a141.56,141.56,0,0,0,18.48,1.44Z" transform="translate(0 0.33)"/><path class="cls-3" d="M618.52,398.88c3.59-7.27,9.29-13.66,17-19a20.28,20.28,0,0,1,3.4-1.9,9.8,9.8,0,0,1,3.87-.89,5.29,5.29,0,0,1,5.07,3.5,20.54,20.54,0,0,1,1.41,8.18c-.08,2.66-.08,5.32-.08,8l0,2.14H618.52M616.37,400h34.41c0-3.76-.07-7.46,0-11.16a21,21,0,0,0-1.44-8.49,6.8,6.8,0,0,0-6.64-4.3,12.37,12.37,0,0,0-4.69,1,20.67,20.67,0,0,0-3.75,2.14C625.94,385,619.92,392,616.37,400Z" transform="translate(0 0.33)"/><path class="cls-3" d="M441.88,337.4h0a12.69,12.69,0,0,1-8.48-3c-6.52-5.81-8.55-12.59-6.25-20.67,1.29-4.41,7.07-9.12,16.72-9.12.43,0,.86,0,1.41.05,5.15,0,9.37,1.09,12.22,3.13,3.32,2.45,4.81,6.15,4.22,10.76-1,7.48-5.46,13.32-13.32,17.33a13.92,13.92,0,0,1-6.52,1.57m0,1.09a16.44,16.44,0,0,0,7.5-1.8c8.67-4.46,13-10.71,13.94-18.11,1.18-9.38-5.82-15.07-18-15.07h-1.41c-10,0-16.76,4.69-18.28,10-2.23,7.79-.67,15.12,6.52,21.53a14.61,14.61,0,0,0,9.77,3.49Z" transform="translate(0 0.33)"/><path class="cls-3" d="M688.25,349.44v-1.1h-2.16c-6.4-.18-8-3.23-8.12-5.78-.23-4.22,1.33-8.08,3-12.2.47-1.28,1-2.56,1.45-3.81.89-2.66,1.91-5.26,2.92-7.87A114.2,114.2,0,0,0,690.67,303a86.12,86.12,0,0,0,2.69-19.57v-5.79a294.39,294.39,0,0,1,.9-30.52c.43-4.43.39-8.91.39-13.24,0-4,0-8.05.27-12.06l.08-1.15c.43-5.19.86-10.5,3.59-15.4a15.91,15.91,0,0,1,14.11-8.11,21,21,0,0,1,8.71,2,25.43,25.43,0,0,1,9.76,7.61c4.42,5.81,5.4,12,5.78,17.38.2,2.48.16,4.93.12,8,0,1.62,0,3.34,0,5.24-.7,11.08,1.1,21.22,5.32,30.11,5.27,11,14,21.6,26.79,32.47,4.84,4.12,9.69,8.13,14.53,12.2l1.49,1.27a21.92,21.92,0,0,1,4.33,5.14c3.17,5.06,2,7.37-5.35,10.45a36.79,36.79,0,0,1-8.87,2c-18.16,2.7-35.74,7.16-50.5,11.15-13.17,3.54-24.22,6.2-36.52,6.2v1.1m0,0c13.08,0,25.11-3.08,37.1-6.31,16.45-4.43,33-8.52,50.27-11.1a38.64,38.64,0,0,0,9.38-2.09c8.24-3.46,9.3-6.49,6-11.78a22.56,22.56,0,0,0-4.54-5.37c-5.35-4.48-10.7-9-16.05-13.5-11.32-9.64-20.78-20.09-26.52-32.11-4.84-10.27-5.78-20.9-5.28-29.76,0-5.68.24-9.49,0-13.32-.46-6.18-1.75-12.22-6-17.8a26.58,26.58,0,0,0-10.23-8,23.35,23.35,0,0,0-9.65-2.19,17.41,17.41,0,0,0-15.59,8.81c-3,5.4-3.32,11.21-3.75,16.86-.7,8.42.08,16.81-.7,25.29-1.17,12.11-.9,24.26-.9,36.38a84.61,84.61,0,0,1-2.69,19.42c-1.88,8-5.48,15.61-8.25,23.45-1.91,5.37-4.8,10.59-4.45,16.32.27,4.17,3.71,6.62,9.65,6.77.74.06,1.48.06,2.23.06Z" transform="translate(0 0.33)"/><path class="cls-3" d="M32.59,108.14c-8.83,0-17.46-1.79-25.82-3.51l-1.29-.26c-1.29-.26-2.54-.5-3.83-.71V59.15c1.48,0,2.93,0,4.41,0H9a125.78,125.78,0,0,1,18.4,1c10.2,1.51,19.38,6.17,25.16,12.77C58.8,80,60.4,88.42,57,96c-3.32,7.14-12.38,11.93-23,12.17l-1.36,0m0,1.07,1.4,0c11.29-.26,21-5.37,24.53-12.93,7.19-15.87-7.65-33.73-30.74-37.17A126.71,126.71,0,0,0,9,58.1h-3c-2,0-4,0-6-.05V104.5c1.72.28,3.32.54,5,.88,9.06,1.85,18,3.83,27.58,3.83Z" transform="translate(0 0.33)"/><path class="cls-3" d="M252.86,286.26c-5.67,0-8.63-2.61-8.87-7.77-.27-6,1.33-11.8,3.09-17.2s4.22-11,6.56-16.26c2.07-4.69,4.22-9.59,6-14.49,3.75-10.48,4.29-21.24,1.6-32.92a30.79,30.79,0,0,1-1.14-9.85c.32-4.9,3.68-7.85,9.07-7.85A21.14,21.14,0,0,1,275.4,181a93.15,93.15,0,0,1,12.07,4.93c10.35,4.9,21.52,9.09,32.26,13.13l5.43,2c7.35,2.76,16.8,6.64,24.57,12.35,6,4.46,8.67,9,8.17,14,.43,6.73-3,12.56-10.59,18.35-7.34,5.53-16.25,9.67-25.55,13.79-13.55,6.1-27.57,12.4-41.83,18.48l-1.56.67c-6.61,2.82-13.44,5.71-21,7.09a29.43,29.43,0,0,1-4.49.42m0,1.09a29.41,29.41,0,0,0,4.92-.49c8.4-1.54,15.7-4.77,23-7.87,14.1-6,28-12.28,41.87-18.51,9.22-4.09,18.28-8.26,25.86-14,7.07-5.32,11.45-11.34,11-19.08.58-5.76-3-10.53-8.6-14.7-7.22-5.32-15.89-9.17-25-12.56-12.69-4.8-25.54-9.41-37.54-15.09a94.7,94.7,0,0,0-12.3-5,23.6,23.6,0,0,0-7-1.18c-6.17,0-10.32,3.21-10.67,8.89a31.8,31.8,0,0,0,1.17,10.06,56.6,56.6,0,0,1-1.6,32.5c-3.67,10.35-9.06,20.31-12.54,30.73-1.87,5.76-3.39,11.57-3.12,17.52.27,5.78,3.91,8.8,10.47,8.8Z" transform="translate(0 0.33)"/><path class="cls-3" d="M163.48,356.21v-1.07a20.46,20.46,0,0,1-11.79-3.85c-5.47-3.89-5.82-4.54-5.82-7.38,0-2.6,3-5.26,6.6-5.94A61,61,0,0,1,162.9,337a49.08,49.08,0,0,1,7.62.57c3.12.47,5.46,1.67,6.79,3.39,1.53,2,1.45,4.51-.23,7.09a15.75,15.75,0,0,1-13.6,7.06v1.07m0,0c6.1,0,11.8-2.65,15.08-7.71,3.56-5.53.24-10.69-7.69-11.94a51,51,0,0,0-8-.62,62.48,62.48,0,0,0-10.82,1c-4.42.83-7.81,4-7.81,7,0,3.23.74,4.2,6.25,8.11a22.52,22.52,0,0,0,13,4.19Z" transform="translate(0 0.33)"/><path class="cls-3" d="M549.77,58.52a9.41,9.41,0,0,1-3.13-.65,12.66,12.66,0,0,1-7.34-9.8c-.23-2,.12-5.66,4.57-8a10.66,10.66,0,0,1,4.61-1.25,11.05,11.05,0,0,1,8.28,4.54c3.44,4.09,2,10.27-3.16,13.81a6.56,6.56,0,0,1-3.83,1.33m0,1.07a8.71,8.71,0,0,0,5-1.67c5.43-3.7,7.27-10.42,3.4-15.06a12.74,12.74,0,0,0-9.53-5.09,12.35,12.35,0,0,0-5.74,1.49c-9.77,5.08-4.18,16.76,3,19.52a11,11,0,0,0,3.91.81Z" transform="translate(0 0.33)"/><path class="cls-3" d="M941.56,262.44a62.07,62.07,0,0,1-17.07-2.29c-8.63-2.4-13.55-6.94-14.22-13.14-.54-5.58,2.66-10.3,9.81-14.44,6.72-3.81,15-5.68,25.27-5.68h1.06c14,.13,24.56,2.87,33.28,8.63,6.09,4,6.32,9.87.54,14.51-9.76,7.77-24.25,12.41-38.67,12.41m0,1.09c14.69,0,29.53-4.58,39.92-12.82,6.49-5.21,5.71-11.73-.66-16-9.89-6.54-21.44-8.81-34.41-8.91h-1.06c-9.61,0-18.59,1.53-26.29,5.94-6.87,3.93-11,8.91-10.39,15.27.75,6.91,6.49,11.68,15.2,14.08a65,65,0,0,0,17.69,2.39Z" transform="translate(0 0.33)"/><path class="cls-3" d="M277.66,398.88a139.27,139.27,0,0,1,11.41-15.35c1.44-1.77,2.89-3.55,4.3-5.37a114.26,114.26,0,0,0,9.76-15.33c1.41-2.55,2.85-5.11,4.41-7.61,2.5-4,5.4-8.23,10.28-11.39a14.67,14.67,0,0,1,7.81-2.47,12.67,12.67,0,0,1,5.74,1.41c3.09,1.46,4.18,3.91,5.2,6.72,1.52,4,.74,8-.35,12.46-1,4.06-2.39,8.13-3.71,12.07a115.44,115.44,0,0,0-4.18,14.15c-.59,2.86-1,5.73-1.49,8.6l-.31,2.11H277.66M275.32,400H328c.63-3.91,1.14-7.77,2-11.63,1.76-8.86,5.78-17.38,7.85-26.22,1.05-4.24,2-8.57.35-12.87-1-2.77-2.23-5.63-5.82-7.35a15,15,0,0,0-6.68-1.59,16.54,16.54,0,0,0-8.91,2.79c-5,3.23-8,7.43-10.66,11.73-4.69,7.61-8.36,15.58-14.1,22.88S279.81,392.13,275.32,400Z" transform="translate(0 0.33)"/><path class="cls-3" d="M274.15,7.54c-6.49,0-9.81-3.41-11.49-6.31-.08-.15-.19-.31-.27-.47H292.7c-3.2,2.69-7.5,4.7-13,6.08a23.81,23.81,0,0,1-5.54.7m0,1.07a26,26,0,0,0,6.09-.78C286.53,6.26,292,3.76,295.79-.3H259.93c.39.67.86,1.25,1.25,1.92,2.62,4.57,7.15,7,13,7Z" transform="translate(0 0.33)"/><path class="cls-3" d="M135.4,253.58h0a21.93,21.93,0,0,1-4.81-.58c-9.37-2.08-17.22-6.2-23-9.56-10.47-6-21.72-11.5-32.58-16.81-6.25-3-12.74-6.21-19-9.41a48.16,48.16,0,0,1-9.72-6.49c-9.42-8.52-8.71-16.37,2.38-25.41,4.61-3.73,10.27-6.62,15.7-9.25,15.63-7.56,31.57-15.17,47-22.5l2.18-1a72.21,72.21,0,0,1,16.53-5.73,24.9,24.9,0,0,1,4.8-.52c5,0,8.52,2,10.78,6.07,3.28,5.91,4.69,12.43,4.42,20.54-.24,7-.94,14-1.61,20.9l-.5,5a96.66,96.66,0,0,0,1,22.47c.24,1.61.47,3.18.75,4.79.93,5.63,1.87,11.47.31,17.21a12.13,12.13,0,0,1-3,5.63,15.69,15.69,0,0,1-11.56,4.69m0,1a17.61,17.61,0,0,0,12.93-5.16,13.12,13.12,0,0,0,3.2-6c2.07-7.48,0-14.83-1-22.26a96.69,96.69,0,0,1-1-22.34c.82-8.65,1.8-17.28,2.11-25.93.23-7.17-.78-14.2-4.53-20.93-2.46-4.48-6.6-6.77-12.27-6.77a25.83,25.83,0,0,0-5.27.57,74.61,74.61,0,0,0-17,5.89c-16.45,7.82-32.86,15.61-49.18,23.54-5.75,2.78-11.41,5.7-16,9.43C37,193.16,34.27,201.71,45,211.35a48.91,48.91,0,0,0,10,6.73c17.11,8.81,35.08,16.68,51.48,26.17,7.15,4.11,14.73,7.76,23.6,9.74a23.38,23.38,0,0,0,5.31.63Z" transform="translate(0 0.33)"/><path class="cls-3" d="M569.38,231.11c-.31,0-.55,0-.9,0a64.43,64.43,0,0,1-18.56-3.8,149.53,149.53,0,0,1-33.43-16.55,68.74,68.74,0,0,1-22.27-24.84c-7.58-14.26-18.71-27.73-33.12-40a40.91,40.91,0,0,1-7.34-8.67c-2.16-3.13-2.94-5.4-.59-7.75,2.11-2.11,5.15-3.07,9.61-3.07.47,0,.9,0,1.32,0a69.79,69.79,0,0,1,23.48,5.43c13.68,5.42,24.18,13.16,32.66,20,16,13,29.53,23.17,42.58,31.93,2.42,1.62,4.84,3.18,7.34,4.74,4.38,2.87,8.94,5.79,13.2,8.86a30.14,30.14,0,0,1,9.53,10.72c2.23,4.56,1.29,9.74-2.5,14.2-3.63,4.22-9.41,7.19-15.85,8.19l-.63.1a27.85,27.85,0,0,1-4.53.52m0,1.1a33.15,33.15,0,0,0,5.54-.68c14.81-2.24,24.3-13.87,19.5-23.77a31.84,31.84,0,0,0-9.89-11.1C578,191.86,570.78,187.59,564,183c-15-10.06-29-20.85-42.5-31.84-9.73-7.9-20.12-15.15-33.09-20.26a72.12,72.12,0,0,0-24.14-5.57c-.46,0-1,0-1.44,0-4.26,0-8.2.81-10.94,3.54-3,3-1.52,5.9.47,8.79a41.56,41.56,0,0,0,7.54,8.89c14,12,25.11,25.09,32.89,39.72a69.71,69.71,0,0,0,22.66,25.23,149.57,149.57,0,0,0,33.82,16.73,66,66,0,0,0,19.14,3.93c.36,0,.71.06,1,.06Z" transform="translate(0 0.33)"/><path class="cls-3" d="M819.26,176.14v-1.06c-6,0-11.52-2.4-18.48-8a37.07,37.07,0,0,1-11.56-16.13c-1.88-5,.86-9.43,7.34-11.94,8.44-3.31,17.82-4.58,26.64-5.63,11.41-1.33,23.44-2.32,35.71-2.86.39,0,.78,0,1.17,0a61.1,61.1,0,0,1,7.58.63,8.31,8.31,0,0,1,4.76,2,4.21,4.21,0,0,1,1.17,4.33c-1.13,3.86-3.59,7.58-8,12-8.47,8.71-19.21,16.06-32,21.87-5.47,2.53-10.19,3.73-14.37,3.73v1.06m0,0c4.53,0,9.49-1.25,15.27-3.91,12.89-5.89,23.75-13.26,32.42-22.18,3.71-3.77,6.88-7.79,8.21-12.4,1.09-3.7-2-7-7.27-7.59a61.08,61.08,0,0,0-7.81-.65c-.39,0-.86,0-1.29,0-12,.55-23.95,1.48-35.9,2.89-9.33,1.1-18.59,2.43-27.11,5.76-7.07,2.71-10.2,7.59-8.12,13.11a37.89,37.89,0,0,0,11.87,16.55c6.72,5.42,12.73,8.39,19.73,8.39Z" transform="translate(0 0.33)"/><path class="cls-3" d="M102.55,204.79v-1.07c-4.81,0-8.71-1.7-11.37-4.88a7.35,7.35,0,0,1-1.6-3.36c.47-2.37,2-4.56,4.72-6.7a23.54,23.54,0,0,1,6.14-3.1l1.56-.62a13.81,13.81,0,0,1,5-1.07,7.28,7.28,0,0,1,7.5,7.3,12.47,12.47,0,0,1-2.7,7.5,10.62,10.62,0,0,1-9.14,4.93l-.15,1.07m0,0h.19a12.16,12.16,0,0,0,10.55-5.58,13.44,13.44,0,0,0,2.85-8c0-4.14-3.32-8.31-9.1-8.31a15.73,15.73,0,0,0-5.86,1.22c-2.85,1.18-5.86,2.17-8.09,3.94-2.65,2.11-4.53,4.51-5.11,7.25a8,8,0,0,0,1.79,4c2.89,3.46,7.39,5.42,12.78,5.42Z" transform="translate(0 0.33)"/></g></svg>