<?xml version="1.0" encoding="utf-8"?>
<!-- Generator: Adobe Illustrator 24.2.3, SVG Export Plug-In . SVG Version: 6.00 Build 0)  -->
<svg version="1.1" id="Layer_1" xmlns="http://www.w3.org/2000/svg" xmlns:xlink="http://www.w3.org/1999/xlink" x="0px" y="0px"
	 viewBox="0 0 503.1 169" style="enable-background:new 0 0 503.1 169;" xml:space="preserve">
<style type="text/css">
	.st0{fill:#FFFFFF;}
	.st1{fill-rule:evenodd;clip-rule:evenodd;fill:url(#SVGID_1_);}
	.st2{fill-rule:evenodd;clip-rule:evenodd;fill:url(#SVGID_2_);}
	.st3{fill-rule:evenodd;clip-rule:evenodd;fill:url(#SVGID_3_);}
	.st4{fill-rule:evenodd;clip-rule:evenodd;fill:url(#SVGID_4_);}
	.st5{opacity:0.2;fill-rule:evenodd;clip-rule:evenodd;enable-background:new    ;}
	.st6{opacity:0.25;fill-rule:evenodd;clip-rule:evenodd;fill:#FFFFFF;enable-background:new    ;}
	.st7{enable-background:new    ;}
	.st8{fill:#808285;}
	.st9{fill-rule:evenodd;clip-rule:evenodd;fill:#232323;}
</style>
<path class="st0" d="M84.5,0h334.1c46.7,0,84.5,37.8,84.5,84.5l0,0l0,0c0,46.7-37.8,84.5-84.5,84.5H84.5C37.8,169,0,131.2,0,84.5
	l0,0C0,37.8,37.8,0,84.5,0z"/>
<linearGradient id="SVGID_1_" gradientUnits="userSpaceOnUse" x1="2952.4004" y1="-1312.6017" x2="2936.7703" y2="-1304.5416" gradientTransform="matrix(3.58 0 0 6.93 -10442.9707 9132.9502)">
	<stop  offset="0" style="stop-color:#00A0FF"/>
	<stop  offset="1.000000e-02" style="stop-color:#00A1FF"/>
	<stop  offset="0.26" style="stop-color:#00BEFF"/>
	<stop  offset="0.51" style="stop-color:#00D2FF"/>
	<stop  offset="0.76" style="stop-color:#00DFFF"/>
	<stop  offset="1" style="stop-color:#00E3FF"/>
</linearGradient>
<path class="st1" d="M79.8,41.6c-1.1,1.3-1.6,3-1.5,4.7V120c-0.1,1.7,0.4,3.4,1.6,4.7l0.3,0.2l41.2-41.3v-0.9L80,41.4L79.8,41.6z"/>
<linearGradient id="SVGID_2_" gradientUnits="userSpaceOnUse" x1="2892.126" y1="-1266.7511" x2="2863.446" y2="-1266.7511" gradientTransform="matrix(2.81 0 0 2.37 -7968 3085.3601)">
	<stop  offset="0" style="stop-color:#FFE000"/>
	<stop  offset="0.41" style="stop-color:#FFBD00"/>
	<stop  offset="0.78" style="stop-color:#FFA500"/>
	<stop  offset="1" style="stop-color:#FF9C00"/>
</linearGradient>
<path class="st2" d="M135,97.4l-13.7-13.8v-0.9L135,68.9l0.3,0.2l16.3,9.2c4.6,2.6,4.6,7,0,9.6l-16.3,9.2L135,97.4L135,97.4z"/>
<linearGradient id="SVGID_3_" gradientUnits="userSpaceOnUse" x1="3018.7832" y1="-1284.4882" x2="3002.353" y2="-1263.1782" gradientTransform="matrix(4.61 0 0 3.56 -13791.5205 4666.1499)">
	<stop  offset="0" style="stop-color:#FF3A44"/>
	<stop  offset="1" style="stop-color:#C31162"/>
</linearGradient>
<path class="st3" d="M135.3,97.2l-14.1-14.1l-41.5,41.5c1.5,1.6,4.1,1.8,6.9,0.2L135.3,97.2z"/>
<linearGradient id="SVGID_4_" gradientUnits="userSpaceOnUse" x1="3004.925" y1="-1306.5964" x2="3012.2651" y2="-1297.0764" gradientTransform="matrix(4.61 0 0 3.56 -13791.5205 4660.4297)">
	<stop  offset="0" style="stop-color:#32A071"/>
	<stop  offset="7.000000e-02" style="stop-color:#2DA771"/>
	<stop  offset="0.48" style="stop-color:#15CF74"/>
	<stop  offset="0.8" style="stop-color:#06E775"/>
	<stop  offset="1" style="stop-color:#00F076"/>
</linearGradient>
<path class="st4" d="M135.3,69.1L86.7,41.4c-2.8-1.6-5.4-1.4-6.9,0.2l41.5,41.5L135.3,69.1z"/>
<path class="st5" d="M135,96.9l-48.3,27.4c-2.7,1.6-5.1,1.4-6.7,0l-0.3,0.3l0.3,0.2c1.6,1.4,4,1.5,6.7,0l48.7-27.7L135,96.9z"/>
<path class="st6" d="M86.7,41.9l64.9,36.9c2.1,1.2,3.3,2.8,3.5,4.3c0-1.7-1.1-3.5-3.5-4.8L86.7,41.5c-4.6-2.7-8.4-0.4-8.4,4.9v0.5
	C78.2,41.5,82,39.3,86.7,41.9z"/>
<g class="st7">
	<path class="st8" d="M199.3,53.3c-0.1-0.4-0.3-0.8-0.5-1.1c-0.2-0.3-0.5-0.6-0.8-0.8s-0.7-0.4-1-0.5c-0.4-0.1-0.8-0.2-1.3-0.2
		c-0.9,0-1.7,0.2-2.3,0.7c-0.7,0.4-1.2,1.1-1.6,1.9s-0.6,1.9-0.6,3.1c0,1.2,0.2,2.2,0.5,3.1c0.4,0.8,0.9,1.5,1.6,1.9
		c0.7,0.4,1.5,0.7,2.4,0.7c0.8,0,1.5-0.1,2.1-0.4c0.6-0.3,1-0.7,1.4-1.3c0.3-0.5,0.5-1.2,0.5-1.9l0.7,0.1h-4.5v-2.8h7.2v2.2
		c0,1.5-0.3,2.8-1,3.9c-0.6,1.1-1.5,1.9-2.7,2.5s-2.4,0.9-3.9,0.9c-1.6,0-3-0.4-4.3-1.1c-1.2-0.7-2.2-1.7-2.9-3.1
		c-0.7-1.3-1-2.9-1-4.7c0-1.4,0.2-2.7,0.6-3.8c0.4-1.1,1-2,1.7-2.8c0.7-0.8,1.6-1.3,2.6-1.7c1-0.4,2-0.6,3.2-0.6
		c1,0,1.9,0.1,2.7,0.4c0.8,0.3,1.6,0.7,2.3,1.2c0.7,0.5,1.2,1.1,1.6,1.8c0.4,0.7,0.7,1.5,0.8,2.4H199.3z"/>
	<path class="st8" d="M205.9,65V47.7h11.7v3h-8v4.1h7.4v3h-7.4V62h8v3H205.9z"/>
	<path class="st8" d="M219.8,50.7v-3H234v3h-5.3V65h-3.6V50.7H219.8z"/>
	<path class="st8" d="M245.6,47.7V65h-3.7V47.7H245.6z"/>
	<path class="st8" d="M247.9,50.7v-3h14.2v3h-5.3V65h-3.6V50.7H247.9z"/>
	<path class="st8" d="M285.9,56.3c0,1.9-0.4,3.5-1.1,4.8s-1.7,2.3-2.9,3c-1.2,0.7-2.6,1-4.1,1c-1.5,0-2.9-0.3-4.1-1
		c-1.2-0.7-2.2-1.7-2.9-3s-1.1-2.9-1.1-4.8c0-1.9,0.4-3.5,1.1-4.8s1.7-2.3,2.9-3s2.6-1,4.1-1c1.5,0,2.9,0.3,4.1,1s2.2,1.7,2.9,3
		S285.9,54.5,285.9,56.3z M282.2,56.3c0-1.2-0.2-2.3-0.5-3.1c-0.4-0.8-0.9-1.5-1.5-1.9c-0.7-0.4-1.4-0.7-2.3-0.7
		c-0.9,0-1.7,0.2-2.3,0.7c-0.7,0.4-1.2,1.1-1.5,1.9c-0.4,0.8-0.5,1.9-0.5,3.1s0.2,2.3,0.5,3.1c0.4,0.8,0.9,1.5,1.5,1.9
		c0.7,0.4,1.4,0.7,2.3,0.7c0.9,0,1.7-0.2,2.3-0.7c0.7-0.4,1.2-1.1,1.5-1.9C282,58.6,282.2,57.6,282.2,56.3z"/>
	<path class="st8" d="M303.1,47.7V65h-3.2l-7.5-10.9h-0.1V65h-3.7V47.7h3.2l7.5,10.9h0.2V47.7H303.1z"/>
</g>
<path class="st9" d="M184.8,100.8c0.2-10.7,8.9-19.3,19.6-19.3c5-0.1,9.7,1.8,13.2,5.3l-3.7,3.7c-2.6-2.5-6-3.8-9.5-3.8
	c-7.8,0-14.1,6.3-14.1,14.1s6.3,14.1,14.1,14.1l0,0c3.7,0.2,7.2-1.3,9.8-3.9c1.7-1.8,2.7-4.1,2.9-6.6h-12.7v-5.3h17.8
	c0.2,1.1,0.3,2.2,0.3,3.3c0,4-1.1,8.9-4.6,12.4c-3.5,3.6-8.4,5.6-13.5,5.4C193.7,120.2,185,111.5,184.8,100.8L184.8,100.8z
	 M236.9,95.2c-6.9,0-12.4,5.6-12.4,12.5c0,6.9,5.6,12.4,12.5,12.4c6.9,0,12.4-5.6,12.4-12.4c0.1-6.8-5.3-12.4-12.1-12.4c0,0,0,0,0,0
	H236.9z M236.9,115.2c-4-0.1-7.1-3.4-7-7.4c0,0,0-0.1,0-0.1c0-4.5,3.2-7.6,7-7.6s7,3.1,7,7.6c0.2,4-2.9,7.3-6.8,7.5L236.9,115.2z
	 M264.2,95.2c-6.9,0-12.4,5.6-12.4,12.5s5.6,12.4,12.5,12.4c6.9,0,12.4-5.6,12.4-12.4c0.1-6.8-5.3-12.4-12.1-12.4c0,0,0,0,0,0H264.2
	z M264.2,115.2c-4-0.1-7.1-3.4-7-7.4c0,0,0-0.1,0-0.1c0-4.5,3.3-7.6,7-7.6s7,3.1,7,7.6c0.2,4-2.9,7.3-6.8,7.5L264.2,115.2z
	 M297.7,95.9v2h-0.2c-1.7-1.8-4.1-2.8-6.5-2.8c-6.2,0-11.9,5.5-11.9,12.5c0,6.7,5.3,12.2,11.9,12.4c2.5,0.1,4.9-1,6.5-2.8h0.2v1.8
	c0,4.8-2.5,7.3-6.6,7.3c-2.8-0.1-5.3-1.8-6.3-4.4l-4.8,2c1.8,4.5,6.2,7.4,11,7.4c6.4,0,11.8-3.8,11.8-13V95.9H297.7z M291.4,115.2
	c-3.8,0-6.9-3.2-6.9-7.5s3.2-7.6,6.9-7.6s6.7,3.2,6.7,7.6S295.1,115.2,291.4,115.2z M306.6,82.7h5.5v36.6h-5.5L306.6,82.7z
	 M327.1,115.2c-2.6,0.1-5-1.4-6-3.8l16.7-6.9l-0.6-1.4c-1-2.8-4.2-7.9-10.7-7.9s-11.8,5-11.8,12.4c-0.1,6.7,5.2,12.3,11.9,12.5h0.4
	c4.2,0,8.1-2.1,10.4-5.5l-4.2-2.8C331.9,113.9,329.6,115.2,327.1,115.2z M326.6,100c1.9-0.1,3.8,0.9,4.6,2.6l-11.1,4.6
	c-0.2-3.8,2.6-7,6.4-7.3L326.6,100z M361.7,82.7h-13.1v36.6h5.4v-13.8h7.6c6.1,0,12-4.4,12-11.4S367.8,82.7,361.7,82.7L361.7,82.7z
	 M361.9,100.4h-7.8V87.8h7.8c3.5,0,6.3,2.8,6.3,6.3C368.1,97.6,365.3,100.4,361.9,100.4L361.9,100.4L361.9,100.4z M382.2,119.4V82.7
	h-5.4v36.6L382.2,119.4z M406.8,119.4v-14c0-6.5-4.9-10.1-11.1-10.1c-4,0-8,1.7-9.8,5.6l4.9,2c1-1.8,2.9-2.9,5-2.7
	c2.8,0,5.7,1.7,5.7,4.7v0.4c-1.8-0.9-3.7-1.4-5.7-1.4c-5.2,0-10.5,2.9-10.5,8.2c0,4.9,4.3,8.1,9.1,8.1c2.8,0.2,5.5-1.2,7-3.6h0.2
	v2.8L406.8,119.4L406.8,119.4z M395,115.2c-1.8,0-4.3-0.9-4.3-3.1c0-2.8,3.1-3.9,5.8-3.9c1.7-0.1,3.5,0.4,5,1.2
	C401.1,112.7,398.3,115.2,395,115.2z M426,96l-6.3,15.9h-0.2L413.1,96h-5.9l9.7,22.2l-5.6,12.3h5.7l15-34.5L426,96z"/>
</svg>
