<?xml version="1.0" encoding="utf-8"?>
<!-- Generator: Adobe Illustrator 24.2.3, SVG Export Plug-In . SVG Version: 6.00 Build 0)  -->
<svg version="1.1" id="Layer_1" xmlns="http://www.w3.org/2000/svg" xmlns:xlink="http://www.w3.org/1999/xlink" x="0px" y="0px"
	 viewBox="0 0 503.1 169" style="enable-background:new 0 0 503.1 169;" xml:space="preserve">
<style type="text/css">
	.st0{fill:#FFFFFF;}
	.st1{enable-background:new    ;}
	.st2{fill:#808285;}
	.st3{fill:#232323;}
</style>
<path class="st0" d="M84.5,0h334.1c46.7,0,84.5,37.8,84.5,84.5l0,0l0,0c0,46.7-37.8,84.5-84.5,84.5H84.5C37.8,169,0,131.2,0,84.5
	l0,0C0,37.8,37.8,0,84.5,0z"/>
<g class="st1">
	<path class="st2" d="M186.3,54.3c-0.1-0.4-0.3-0.8-0.5-1.1c-0.2-0.3-0.5-0.6-0.8-0.8s-0.7-0.4-1-0.5c-0.4-0.1-0.8-0.2-1.3-0.2
		c-0.9,0-1.7,0.2-2.3,0.7c-0.7,0.4-1.2,1.1-1.6,1.9s-0.6,1.9-0.6,3.1c0,1.2,0.2,2.2,0.5,3.1c0.4,0.8,0.9,1.5,1.6,1.9
		c0.7,0.4,1.5,0.7,2.4,0.7c0.8,0,1.5-0.1,2.1-0.4c0.6-0.3,1-0.7,1.4-1.3c0.3-0.5,0.5-1.2,0.5-1.9l0.7,0.1h-4.5v-2.8h7.2v2.2
		c0,1.5-0.3,2.8-1,3.9c-0.6,1.1-1.5,1.9-2.7,2.5s-2.4,0.9-3.9,0.9c-1.6,0-3-0.4-4.3-1.1c-1.2-0.7-2.2-1.7-2.9-3.1
		c-0.7-1.3-1-2.9-1-4.7c0-1.4,0.2-2.7,0.6-3.8c0.4-1.1,1-2,1.7-2.8c0.7-0.8,1.6-1.3,2.6-1.7c1-0.4,2-0.6,3.2-0.6
		c1,0,1.9,0.1,2.7,0.4c0.8,0.3,1.6,0.7,2.3,1.2c0.7,0.5,1.2,1.1,1.6,1.8c0.4,0.7,0.7,1.5,0.8,2.4H186.3z"/>
	<path class="st2" d="M192.9,66V48.7h11.7v3h-8v4.1h7.4v3h-7.4V63h8v3H192.9z"/>
	<path class="st2" d="M206.8,51.7v-3H221v3h-5.3V66h-3.6V51.7H206.8z"/>
	<path class="st2" d="M232.6,48.7V66h-3.7V48.7H232.6z"/>
	<path class="st2" d="M234.9,51.7v-3h14.2v3h-5.3V66h-3.6V51.7H234.9z"/>
	<path class="st2" d="M272.9,57.3c0,1.9-0.4,3.5-1.1,4.8s-1.7,2.3-2.9,3c-1.2,0.7-2.6,1-4.1,1c-1.5,0-2.9-0.3-4.1-1
		c-1.2-0.7-2.2-1.7-2.9-3s-1.1-2.9-1.1-4.8c0-1.9,0.4-3.5,1.1-4.8s1.7-2.3,2.9-3s2.6-1,4.1-1c1.5,0,2.9,0.3,4.1,1s2.2,1.7,2.9,3
		S272.9,55.5,272.9,57.3z M269.2,57.3c0-1.2-0.2-2.3-0.5-3.1c-0.4-0.8-0.9-1.5-1.5-1.9c-0.7-0.4-1.4-0.7-2.3-0.7
		c-0.9,0-1.7,0.2-2.3,0.7c-0.7,0.4-1.2,1.1-1.5,1.9c-0.4,0.8-0.5,1.9-0.5,3.1s0.2,2.3,0.5,3.1c0.4,0.8,0.9,1.5,1.5,1.9
		c0.7,0.4,1.4,0.7,2.3,0.7c0.9,0,1.7-0.2,2.3-0.7c0.7-0.4,1.2-1.1,1.5-1.9C269,59.6,269.2,58.6,269.2,57.3z"/>
	<path class="st2" d="M290.1,48.7V66h-3.2l-7.5-10.9h-0.1V66h-3.7V48.7h3.2l7.5,10.9h0.2V48.7H290.1z"/>
</g>
<path d="M132.5,81.7c0-6.9,3.1-12.1,9.4-15.9c-3.5-5-8.9-7.8-15.9-8.4c-6.7-0.5-13.9,3.9-16.6,3.9s-9.3-3.7-14.3-3.7
	c-10.5,0.2-21.6,8.3-21.6,25c0,5.2,1,10.3,2.7,15.2c2.4,6.9,11.1,23.8,20.1,23.5c4.7-0.1,8.1-3.4,14.2-3.4s9.1,3.4,14.3,3.4
	c9.1-0.1,17-15.5,19.2-22.4C131.9,93.2,132.5,82.1,132.5,81.7L132.5,81.7z M121.9,50.9c5.1-6.1,4.7-11.6,4.5-13.6
	c-4.9,0.5-9.5,2.9-12.7,6.5c-3.4,3.6-5.1,8.5-4.8,13.5C113.7,57.7,118.2,55.2,121.9,50.9z"/>
<g>
	<g class="st1">
		<path class="st3" d="M179,115.3H174l11.4-31.7h5.5l11.4,31.7h-5.1l-9-25.9H188L179,115.3z M179.9,102.9h16.5v4h-16.5V102.9z"/>
		<path class="st3" d="M206.5,124.2V91.6h4.5v3.8h0.4c0.3-0.5,0.7-1.1,1.2-1.7c0.5-0.6,1.2-1.2,2.1-1.7c0.9-0.5,2.1-0.7,3.6-0.7
			c1.9,0,3.6,0.5,5.1,1.5s2.7,2.4,3.5,4.2s1.3,4,1.3,6.6s-0.4,4.8-1.3,6.6c-0.9,1.8-2,3.2-3.5,4.2s-3.2,1.5-5.1,1.5
			c-1.4,0-2.6-0.2-3.5-0.7c-0.9-0.5-1.6-1.1-2.1-1.7c-0.5-0.6-0.9-1.2-1.2-1.7h-0.3v12.6H206.5z M211,103.5c0,1.7,0.2,3.1,0.7,4.4
			c0.5,1.3,1.2,2.2,2.1,2.9c0.9,0.7,2,1.1,3.4,1.1c1.4,0,2.5-0.4,3.5-1.1c0.9-0.7,1.6-1.7,2.1-3s0.7-2.7,0.7-4.3
			c0-1.6-0.2-3-0.7-4.2c-0.5-1.2-1.2-2.2-2.1-3c-0.9-0.7-2.1-1.1-3.5-1.1c-1.3,0-2.5,0.3-3.4,1c-0.9,0.7-1.6,1.7-2.1,2.9
			C211.2,100.4,211,101.8,211,103.5z"/>
		<path class="st3" d="M233.3,124.2V91.6h4.5v3.8h0.4c0.3-0.5,0.7-1.1,1.2-1.7c0.5-0.6,1.2-1.2,2.1-1.7c0.9-0.5,2.1-0.7,3.6-0.7
			c1.9,0,3.6,0.5,5.1,1.5s2.7,2.4,3.5,4.2c0.9,1.8,1.3,4,1.3,6.6s-0.4,4.8-1.3,6.6c-0.9,1.8-2,3.2-3.5,4.2s-3.2,1.5-5.1,1.5
			c-1.4,0-2.6-0.2-3.5-0.7c-0.9-0.5-1.6-1.1-2.1-1.7c-0.5-0.6-0.9-1.2-1.2-1.7H238v12.6H233.3z M237.9,103.5c0,1.7,0.2,3.1,0.7,4.4
			c0.5,1.3,1.2,2.2,2.1,2.9c0.9,0.7,2,1.1,3.4,1.1c1.4,0,2.5-0.4,3.5-1.1c0.9-0.7,1.6-1.7,2.1-3s0.7-2.7,0.7-4.3
			c0-1.6-0.2-3-0.7-4.2c-0.5-1.2-1.2-2.2-2.1-3c-0.9-0.7-2.1-1.1-3.5-1.1c-1.3,0-2.5,0.3-3.4,1c-0.9,0.7-1.6,1.7-2.1,2.9
			C238.1,100.4,237.9,101.8,237.9,103.5z"/>
		<path class="st3" d="M264.8,83.7v31.7h-4.6V83.7H264.8z"/>
		<path class="st3" d="M281.3,115.8c-2.3,0-4.4-0.5-6-1.5s-3-2.4-3.9-4.3c-0.9-1.8-1.4-4-1.4-6.4c0-2.4,0.5-4.6,1.4-6.4
			s2.2-3.3,3.8-4.3c1.6-1,3.6-1.6,5.8-1.6c1.3,0,2.6,0.2,3.9,0.7s2.4,1.1,3.4,2.1c1,0.9,1.8,2.2,2.4,3.7c0.6,1.5,0.9,3.3,0.9,5.5
			v1.6h-18.9v-3.5H287c0-1.2-0.2-2.3-0.7-3.2c-0.5-0.9-1.2-1.7-2.1-2.2c-0.9-0.5-1.9-0.8-3.1-0.8c-1.3,0-2.4,0.3-3.4,1
			s-1.7,1.5-2.2,2.5s-0.8,2.1-0.8,3.3v2.7c0,1.6,0.3,2.9,0.8,4.1s1.3,2,2.4,2.5c1,0.6,2.2,0.9,3.5,0.9c0.9,0,1.7-0.1,2.4-0.4
			c0.7-0.3,1.3-0.6,1.9-1.1c0.5-0.5,0.9-1.1,1.2-1.9l4.4,0.8c-0.4,1.3-1,2.4-1.9,3.4s-2,1.7-3.4,2.2
			C284.6,115.6,283,115.8,281.3,115.8z"/>
		<path class="st3" d="M325.8,92c-0.2-1.5-0.8-2.6-2-3.4c-1.2-0.8-2.7-1.2-4.5-1.2c-1.3,0-2.4,0.2-3.4,0.6c-0.9,0.4-1.7,1-2.2,1.7
			s-0.8,1.5-0.8,2.4c0,0.8,0.2,1.4,0.5,1.9c0.4,0.5,0.8,1,1.4,1.4s1.2,0.7,1.9,0.9c0.7,0.2,1.3,0.4,1.9,0.6l3.1,0.8
			c1,0.2,2,0.6,3.1,1c1.1,0.4,2,1,3,1.7c0.9,0.7,1.6,1.5,2.2,2.6c0.6,1,0.8,2.2,0.8,3.7c0,1.8-0.5,3.4-1.4,4.8
			c-0.9,1.4-2.3,2.5-4,3.3c-1.7,0.8-3.9,1.2-6.3,1.2c-2.4,0-4.4-0.4-6.2-1.1c-1.7-0.8-3.1-1.8-4.1-3.2c-1-1.4-1.5-3-1.6-4.9h4.8
			c0.1,1.1,0.5,2.1,1.1,2.9c0.7,0.8,1.5,1.3,2.5,1.7c1,0.4,2.2,0.5,3.4,0.5c1.4,0,2.6-0.2,3.6-0.6s1.9-1,2.5-1.8
			c0.6-0.8,0.9-1.7,0.9-2.7c0-0.9-0.3-1.7-0.8-2.3c-0.5-0.6-1.2-1.1-2.1-1.5c-0.9-0.4-1.9-0.7-3.1-1l-3.7-1c-2.5-0.7-4.5-1.7-6-3
			c-1.5-1.3-2.2-3.1-2.2-5.3c0-1.8,0.5-3.4,1.5-4.8c1-1.4,2.3-2.4,4-3.2s3.6-1.1,5.7-1.1c2.1,0,4,0.4,5.7,1.1
			c1.6,0.8,2.9,1.8,3.9,3.1c0.9,1.3,1.4,2.8,1.5,4.5H325.8z"/>
	</g>
	<g class="st1">
		<path class="st3" d="M347.3,91.6v3.7h-13v-3.7H347.3z M337.8,85.9h4.6v22.5c0,0.9,0.1,1.6,0.4,2c0.3,0.4,0.6,0.8,1,0.9
			s0.9,0.2,1.4,0.2c0.4,0,0.7,0,1-0.1s0.5-0.1,0.6-0.1l0.8,3.8c-0.3,0.1-0.6,0.2-1.1,0.3c-0.5,0.1-1.1,0.2-1.9,0.2
			c-1.2,0-2.4-0.2-3.4-0.6c-1.1-0.5-1.9-1.2-2.6-2.1c-0.6-0.9-1-2.1-1-3.6V85.9z"/>
	</g>
	<g class="st1">
		<path class="st3" d="M362.1,115.8c-2.2,0-4.2-0.5-5.8-1.5c-1.7-1-2.9-2.4-3.9-4.3c-0.9-1.8-1.4-4-1.4-6.4c0-2.5,0.5-4.6,1.4-6.5
			c0.9-1.8,2.2-3.3,3.9-4.3c1.7-1,3.6-1.5,5.8-1.5s4.2,0.5,5.8,1.5c1.7,1,2.9,2.5,3.9,4.3c0.9,1.8,1.4,4,1.4,6.5
			c0,2.5-0.5,4.6-1.4,6.4c-0.9,1.8-2.2,3.3-3.9,4.3C366.3,115.3,364.3,115.8,362.1,115.8z M362.1,111.9c1.4,0,2.6-0.4,3.6-1.1
			s1.7-1.8,2.1-3c0.5-1.3,0.7-2.7,0.7-4.2c0-1.5-0.2-2.9-0.7-4.2c-0.5-1.3-1.2-2.3-2.1-3.1s-2.1-1.2-3.6-1.2c-1.5,0-2.7,0.4-3.6,1.2
			s-1.7,1.8-2.1,3.1c-0.5,1.3-0.7,2.7-0.7,4.2c0,1.5,0.2,2.9,0.7,4.2s1.2,2.3,2.1,3S360.7,111.9,362.1,111.9z"/>
	</g>
	<g class="st1">
		<path class="st3" d="M378.3,115.3V91.6h4.5v3.8h0.2c0.4-1.3,1.2-2.3,2.3-3s2.3-1.1,3.7-1.1c0.3,0,0.6,0,1,0c0.4,0,0.7,0,0.9,0.1
			v4.4c-0.2-0.1-0.5-0.1-1-0.2c-0.5-0.1-0.9-0.1-1.4-0.1c-1.1,0-2.1,0.2-2.9,0.7c-0.9,0.5-1.5,1.1-2,1.9s-0.7,1.7-0.7,2.8v14.5
			H378.3z"/>
	</g>
	<g class="st1">
		<path class="st3" d="M404.4,115.8c-2.3,0-4.4-0.5-6-1.5s-3-2.4-3.9-4.3c-0.9-1.8-1.4-4-1.4-6.4c0-2.4,0.5-4.6,1.4-6.4
			s2.2-3.3,3.8-4.3c1.6-1,3.6-1.6,5.8-1.6c1.3,0,2.6,0.2,3.9,0.7s2.4,1.1,3.4,2.1c1,0.9,1.8,2.2,2.4,3.7c0.6,1.5,0.9,3.3,0.9,5.5
			v1.6h-18.9v-3.5h14.3c0-1.2-0.2-2.3-0.7-3.2c-0.5-0.9-1.2-1.7-2.1-2.2c-0.9-0.5-1.9-0.8-3.1-0.8c-1.3,0-2.4,0.3-3.4,1
			s-1.7,1.5-2.2,2.5s-0.8,2.1-0.8,3.3v2.7c0,1.6,0.3,2.9,0.8,4.1s1.3,2,2.4,2.5c1,0.6,2.2,0.9,3.5,0.9c0.9,0,1.7-0.1,2.4-0.4
			c0.7-0.3,1.3-0.6,1.9-1.1c0.5-0.5,0.9-1.1,1.2-1.9l4.4,0.8c-0.4,1.3-1,2.4-1.9,3.4s-2,1.7-3.4,2.2
			C407.7,115.6,406.2,115.8,404.4,115.8z"/>
	</g>
</g>
</svg>
