<svg id="Layer_1" data-name="Layer 1" xmlns="http://www.w3.org/2000/svg" xmlns:xlink="http://www.w3.org/1999/xlink" viewBox="0 0 480 479.73"><defs><style>.cls-1{fill:#f58f3e;}.cls-2{fill:url(#linear-gradient);}.cls-3{fill:#fff;}</style><linearGradient id="linear-gradient" x1="409.03" y1="96.92" x2="140.72" y2="399.31" gradientUnits="userSpaceOnUse"><stop offset="0" stop-color="#dc6d15"/><stop offset="1" stop-color="#dc6d15" stop-opacity="0"/></linearGradient></defs><path class="cls-1" d="M421.39,78.12C329.3-5.77,186.21-4.48,95.54,81a240,240,0,0,0-64.2,247.86c11.27,35.36,56.28,45.92,82.52,19.68l44.81-44.81,62-62L277,185.32a37.76,37.76,0,0,1,53.41,0h0a37.77,37.77,0,0,1,0,53.4L274,295.13l36.06,122.26-30.85,49L212.07,357.09,167.26,401.9C141,428.15,151.61,473.16,187,484.43a239.93,239.93,0,0,0,242.71-59C526.13,329.05,523.35,171,421.39,78.12ZM147,295.2,61.27,246.74,104,230.24l104.33,7.1Z" transform="translate(-20 -16.03)"/><path class="cls-2" d="M215.08,102.57A212.92,212.92,0,0,0,21.88,226a240.91,240.91,0,0,0,9.46,102.83c11.27,35.36,56.28,45.92,82.52,19.68l44.81-44.81,62-62L277,185.32a37.76,37.76,0,0,1,53.41,0h0a37.77,37.77,0,0,1,0,53.4L274,295.13l36.06,122.26-30.85,49L212.07,357.09,167.26,401.9C141,428.15,151.61,473.16,187,484.43a240.92,240.92,0,0,0,167.45-8A212.43,212.43,0,0,0,428,315.52C428,197.91,332.69,102.57,215.08,102.57ZM147,295.2,61.27,246.74,104,230.24l104.33,7.1Z" transform="translate(-20 -16.03)"/><path class="cls-3" d="M471.94,259.57A224.74,224.74,0,0,1,452.12,352a205.09,205.09,0,0,0,28.54-104.61c0-97.9-68.28-179.79-159.79-200.81C408.83,77.41,471.94,161.1,471.94,259.57Z" transform="translate(-20 -16.03)"/></svg>