<svg id="Layer_1" data-name="Layer 1" xmlns="http://www.w3.org/2000/svg" viewBox="0 0 128 128"><defs><style>.cls-1{fill:#faf6f0;}.cls-2{fill:#f67949;}</style></defs><circle class="cls-1" cx="64" cy="64" r="64"/><path class="cls-2" d="M64.28,36A26,26,0,0,0,41.73,74.94L38.38,85.35a2,2,0,0,0,2.56,2.55l10.4-3.35A26,26,0,1,0,64.28,36Zm0,47.94a21.83,21.83,0,0,1-11.61-3.33A2.06,2.06,0,0,0,51,80.4l-7.51,2.42,2.42-7.51a2.07,2.07,0,0,0-.21-1.7A21.94,21.94,0,1,1,64.28,83.94ZM66.82,62a2.54,2.54,0,1,1-2.54-2.54A2.54,2.54,0,0,1,66.82,62ZM77,62a2.54,2.54,0,1,1-2.54-2.54A2.54,2.54,0,0,1,77,62ZM56.66,62a2.54,2.54,0,1,1-2.53-2.54A2.54,2.54,0,0,1,56.66,62Z"/></svg>