<svg id="Layer_1" data-name="Layer 1" xmlns="http://www.w3.org/2000/svg" viewBox="0 0 128 128"><defs><style>.cls-1{fill:#faf6f0;}.cls-2{fill:#f67949;}</style></defs><circle class="cls-1" cx="64" cy="64" r="64"/><path class="cls-2" d="M68.44,39.28c-1.31-1.93-2.48-3.71-3.56-5.34a2.44,2.44,0,0,0-.62-.62,2,2,0,0,0-2.79.62c-1,1.63-2.16,3.33-3.56,5.34-6.11,9-15.25,22.54-15.25,30.28A20.42,20.42,0,0,0,48.7,84a20.68,20.68,0,0,0,14.48,6A20.62,20.62,0,0,0,83.7,69.48C83.7,61.74,74.56,48.27,68.44,39.28Zm6.43,41.89A16.37,16.37,0,0,1,63.18,86a16.66,16.66,0,0,1-11.69-4.8,16.37,16.37,0,0,1-4.8-11.69c0-6.5,8.74-19.43,14.55-28,.7-1,1.32-2,1.94-2.86.62.85,1.24,1.86,1.93,2.86,5.81,8.67,14.56,21.53,14.56,28A16.7,16.7,0,0,1,74.87,81.17Z"/><path class="cls-2" d="M75.18,68.09A2,2,0,0,0,73.09,70a10,10,0,0,1-1.47,4.72,9.48,9.48,0,0,1-3.56,3.41,2,2,0,0,0,2,3.56,13.43,13.43,0,0,0,5-4.8,13.21,13.21,0,0,0,2-6.66A2,2,0,0,0,75.18,68.09Z"/></svg>