<?xml version="1.0" encoding="utf-8"?>
<!-- Generator: Adobe Illustrator 24.2.3, SVG Export Plug-In . SVG Version: 6.00 Build 0)  -->
<svg version="1.1" id="Layer_1" xmlns="http://www.w3.org/2000/svg" xmlns:xlink="http://www.w3.org/1999/xlink" x="0px" y="0px"
	 viewBox="0 0 459.4 132" style="enable-background:new 0 0 459.4 132;" xml:space="preserve">
<style type="text/css">
	.st0{fill:#F67949;}
	.st1{fill:url(#SVGID_1_);}
	.st2{enable-background:new    ;}
</style>
<path class="st0" d="M110.4,17.2c-27-24.5-68.7-22.5-93.2,4.4C1.3,39.1-4,63.6,3.1,86.1c2.3,7.2,10.1,11.1,17.2,8.8
	c2.1-0.7,3.9-1.8,5.4-3.3l12.3-12.3l17-17l15.5-15.5c4.1-4.1,10.6-4.1,14.7,0c0,0,0,0,0,0l0,0c4,4.1,4,10.6,0,14.7l0,0L69.9,76.8
	l9.9,33.6l-8.5,13.5l-18.5-30l-12.3,12.2c-5.4,5.3-5.4,14-0.1,19.3c1.5,1.5,3.4,2.7,5.5,3.4c34.7,11.1,71.9-8.1,82.9-42.8
	C136.7,61.4,129.5,34.5,110.4,17.2z M35,76.9L11.4,63.5L23.1,59l28.7,2L35,76.9z"/>
<linearGradient id="SVGID_1_" gradientUnits="userSpaceOnUse" x1="126.9878" y1="278.188" x2="53.2078" y2="361.338" gradientTransform="matrix(1 0 0 1 -19.98 -255.84)">
	<stop  offset="0" style="stop-color:#DE5B43"/>
	<stop  offset="1" style="stop-color:#DE5B43"/>
</linearGradient>
<path class="st1" d="M53.7,23.9c-22.8,0-43.5,13.2-53.1,33.9C-0.6,67.3,0.2,77,3.1,86.1c2.3,7.2,10.1,11.1,17.2,8.8
	c2.1-0.7,3.9-1.8,5.4-3.3l12.3-12.3l17-17l15.5-15.5c4.1-4.1,10.6-4.1,14.7,0c0,0,0,0,0,0l0,0c4,4.1,4,10.6,0,14.7l0,0L69.9,76.8
	l9.9,33.6l-8.5,13.5l-18.5-30l-12.3,12.2c-5.4,5.3-5.4,14-0.1,19.3c1.5,1.5,3.4,2.7,5.5,3.4c15.1,4.8,31.5,4.1,46.1-2.2
	c24.4-21.2,27.1-58.1,6-82.6C86.8,31.3,70.7,23.9,53.7,23.9z M35,76.9L11.4,63.5L23.1,59l28.7,2L35,76.9z"/>
<g>
	<g class="st2">
		<path class="st0" d="M159.8,53.8c-1.1,0-2-0.3-2.7-1c-0.7-0.7-1.1-1.5-1.1-2.6c0-1.1,0.4-2,1.1-2.6c0.7-0.6,1.6-1,2.7-1h27.8
			c1.1,0,2,0.3,2.7,1c0.7,0.7,1.1,1.5,1.1,2.6c0,1.1-0.4,2-1.1,2.6c-0.7,0.6-1.6,1-2.7,1H159.8z M173.7,90.5c-1.2,0-2.1-0.4-2.9-1.1
			c-0.8-0.7-1.1-1.6-1.1-2.7V50.3h8.1v36.4c0,1.1-0.4,2-1.2,2.7C175.9,90.1,174.9,90.5,173.7,90.5z"/>
	</g>
	<g class="st2">
		<path class="st0" d="M197.4,90.5c-1.1,0-2-0.4-2.7-1.1c-0.7-0.7-1.1-1.6-1.1-2.7V60.8c0-1.1,0.4-2,1.1-2.7
			c0.7-0.7,1.6-1.1,2.7-1.1c1.1,0,2,0.4,2.7,1.1c0.7,0.7,1.1,1.6,1.1,2.7v5.9l-0.4-4.2c0.5-1,1.1-1.9,1.8-2.7
			c0.7-0.8,1.6-1.4,2.5-1.9c0.9-0.5,1.9-0.9,2.9-1.2c1-0.3,2.1-0.4,3.1-0.4c1.3,0,2.3,0.4,3.2,1.1c0.9,0.7,1.3,1.5,1.3,2.5
			c0,1.4-0.4,2.4-1.1,3c-0.7,0.6-1.5,0.9-2.3,0.9c-0.8,0-1.5-0.1-2.2-0.4c-0.6-0.3-1.4-0.4-2.2-0.4c-0.8,0-1.5,0.2-2.3,0.5
			c-0.8,0.4-1.5,0.9-2.1,1.7c-0.6,0.8-1.2,1.7-1.6,2.8c-0.4,1.1-0.6,2.4-0.6,3.9v14.9c0,1.1-0.4,2-1.1,2.7
			C199.4,90.1,198.5,90.5,197.4,90.5z"/>
	</g>
	<g class="st2">
		<path class="st0" d="M246.6,56.3c1.1,0,2,0.4,2.7,1.1c0.7,0.7,1.1,1.6,1.1,2.8v26.5c0,1.1-0.4,2-1.1,2.7c-0.7,0.7-1.6,1.1-2.7,1.1
			s-2-0.4-2.7-1.1c-0.7-0.7-1.1-1.6-1.1-2.7v-3.1l1.4,0.6c0,0.5-0.3,1.2-0.9,2c-0.6,0.8-1.4,1.5-2.4,2.3c-1,0.8-2.2,1.4-3.5,1.9
			c-1.4,0.5-2.8,0.8-4.4,0.8c-2.9,0-5.5-0.7-7.8-2.2c-2.3-1.5-4.2-3.5-5.5-6.1c-1.4-2.6-2-5.6-2-9c0-3.4,0.7-6.4,2-9.1
			c1.4-2.6,3.2-4.7,5.5-6.1c2.3-1.5,4.8-2.2,7.6-2.2c1.8,0,3.4,0.3,5,0.8c1.5,0.5,2.8,1.2,3.9,2.1c1.1,0.8,2,1.7,2.6,2.5
			c0.6,0.9,0.9,1.6,0.9,2.2l-2.3,0.8v-4.6c0-1.1,0.4-2,1.1-2.7C244.7,56.7,245.6,56.3,246.6,56.3z M234,84.2c1.8,0,3.4-0.5,4.8-1.4
			c1.4-0.9,2.5-2.2,3.2-3.8c0.8-1.6,1.2-3.4,1.2-5.3c0-2-0.4-3.8-1.2-5.4c-0.8-1.6-1.8-2.8-3.2-3.8c-1.4-0.9-3-1.4-4.8-1.4
			c-1.8,0-3.4,0.5-4.8,1.4c-1.4,0.9-2.5,2.2-3.2,3.8c-0.8,1.6-1.2,3.4-1.2,5.4c0,2,0.4,3.7,1.2,5.3c0.8,1.6,1.8,2.8,3.2,3.8
			C230.6,83.8,232.2,84.2,234,84.2z"/>
	</g>
	<g class="st2">
		<path class="st0" d="M259.9,57c0.8,0,1.5,0.2,2.2,0.6c0.7,0.4,1.2,1,1.5,1.8l9.2,21.1l-1.4,0.6l9.4-21.6c0.7-1.7,1.8-2.5,3.3-2.4
			c1,0,1.9,0.3,2.5,1c0.6,0.6,1,1.5,1,2.4c0,0.3-0.1,0.6-0.2,0.9c-0.1,0.3-0.2,0.6-0.3,0.9l-11.7,25.8c-0.7,1.5-1.7,2.3-3.2,2.4
			c-0.8,0.1-1.6,0-2.3-0.4s-1.3-1.1-1.7-1.9l-11.7-25.8c-0.1-0.2-0.2-0.5-0.3-0.8c-0.1-0.3-0.2-0.7-0.2-1.2c0-0.8,0.3-1.5,1-2.2
			C257.9,57.3,258.8,57,259.9,57z"/>
	</g>
	<g class="st2">
		<path class="st0" d="M308.8,91.1c-3.6,0-6.6-0.7-9.2-2.2c-2.6-1.5-4.6-3.5-6-6c-1.4-2.5-2.1-5.4-2.1-8.7c0-3.8,0.8-7,2.3-9.6
			c1.5-2.7,3.5-4.7,6-6.1s5.1-2.1,7.8-2.1c2.1,0,4.1,0.4,6,1.3c1.9,0.9,3.6,2.1,5,3.6c1.5,1.5,2.6,3.3,3.5,5.3
			c0.9,2,1.3,4.1,1.3,6.4c0,1-0.4,1.8-1.2,2.4s-1.6,0.9-2.6,0.9h-23.9l-1.9-6.3h23l-1.4,1.3v-1.7c-0.1-1.2-0.5-2.3-1.3-3.3
			c-0.8-1-1.7-1.7-2.9-2.3c-1.2-0.6-2.4-0.8-3.7-0.8c-1.3,0-2.4,0.2-3.5,0.5c-1.1,0.3-2,0.9-2.8,1.7c-0.8,0.8-1.4,1.9-1.9,3.2
			c-0.5,1.3-0.7,3-0.7,5.1c0,2.3,0.5,4.2,1.4,5.7s2.2,2.8,3.6,3.6c1.5,0.8,3.1,1.2,4.7,1.2c1.5,0,2.8-0.1,3.7-0.4
			c0.9-0.2,1.7-0.6,2.2-0.9c0.6-0.4,1.1-0.7,1.5-0.9c0.8-0.4,1.5-0.6,2.1-0.6c0.9,0,1.7,0.3,2.3,0.9c0.6,0.6,0.9,1.4,0.9,2.2
			c0,1.1-0.6,2.2-1.8,3.1c-1.1,0.9-2.6,1.7-4.6,2.4C313,90.8,310.9,91.1,308.8,91.1z"/>
		<path class="st0" d="M337.9,86.7c0,1.1-0.4,2-1.1,2.7s-1.6,1.1-2.7,1.1c-1,0-1.9-0.4-2.6-1.1c-0.7-0.7-1.1-1.6-1.1-2.7V47.9
			c0-1.1,0.4-2,1.1-2.7c0.7-0.7,1.6-1.1,2.7-1.1s2,0.4,2.7,1.1c0.7,0.7,1,1.6,1,2.7V86.7z"/>
		<path class="st0" d="M349.9,52.9c-1.4,0-2.4-0.2-3-0.7c-0.6-0.5-0.9-1.3-0.9-2.4v-1.2c0-1.2,0.3-2,1-2.5c0.6-0.4,1.6-0.7,3-0.7
			c1.5,0,2.5,0.2,3.1,0.7c0.6,0.5,0.9,1.3,0.9,2.4v1.2c0,1.2-0.3,2-0.9,2.5C352.3,52.7,351.3,52.9,349.9,52.9z M353.7,86.7
			c0,1.1-0.4,2-1.1,2.7c-0.7,0.7-1.6,1.1-2.7,1.1c-1.1,0-2-0.4-2.7-1.1s-1.1-1.6-1.1-2.7V60.8c0-1.1,0.4-2,1.1-2.7
			c0.7-0.7,1.6-1.1,2.7-1.1c1.1,0,2,0.4,2.7,1.1c0.7,0.7,1.1,1.6,1.1,2.7V86.7z"/>
		<path class="st0" d="M375,56.3c1.8,0,3.4,0.3,4.8,0.8c1.5,0.5,2.7,1.2,3.8,2.1c1.1,0.8,1.9,1.7,2.5,2.5c0.6,0.9,0.9,1.6,0.9,2.2
			l-1.6,0.8v-4.6c0-1.1,0.4-2,1.1-2.7c0.7-0.7,1.6-1.1,2.7-1.1c1.1,0,2,0.4,2.7,1.1c0.7,0.7,1.1,1.6,1.1,2.8v27.9
			c0,3.6-0.8,6.6-2.4,8.7c-1.6,2.2-3.6,3.8-6.2,4.8c-2.5,1-5.3,1.5-8.2,1.5c-0.8,0-1.9-0.1-3.3-0.3c-1.3-0.2-2.6-0.5-3.8-0.8
			c-1.2-0.3-2.1-0.6-2.8-0.8c-1.3-0.5-2.1-1.2-2.6-2c-0.5-0.8-0.6-1.7-0.3-2.6c0.4-1.2,1-2,1.8-2.5s1.7-0.5,2.6-0.2
			c0.4,0.1,1.1,0.4,2.1,0.8c1,0.4,2,0.7,3.2,1c1.1,0.3,2.2,0.5,3,0.5c3.1,0,5.5-0.6,7-1.9s2.3-3,2.3-5.2v-5.5l0.8,0.6
			c0,0.5-0.3,1.2-0.8,2c-0.6,0.8-1.3,1.5-2.3,2.3c-1,0.8-2.1,1.4-3.5,1.9c-1.3,0.5-2.8,0.8-4.3,0.8c-3,0-5.6-0.7-8-2.2
			c-2.4-1.5-4.3-3.5-5.6-6.1c-1.4-2.6-2.1-5.6-2.1-9c0-3.4,0.7-6.4,2.1-9.1c1.4-2.6,3.2-4.7,5.6-6.1S372.2,56.3,375,56.3z
			 M376.2,63.2c-1.9,0-3.5,0.5-5,1.4c-1.4,0.9-2.5,2.2-3.3,3.8c-0.8,1.6-1.2,3.4-1.2,5.4c0,2,0.4,3.7,1.2,5.3
			c0.8,1.6,1.9,2.8,3.3,3.8c1.4,0.9,3.1,1.4,5,1.4c1.9,0,3.6-0.5,5-1.4c1.4-0.9,2.5-2.2,3.3-3.8c0.8-1.6,1.2-3.4,1.2-5.3
			c0-2-0.4-3.8-1.2-5.4c-0.8-1.6-1.9-2.8-3.3-3.8C379.8,63.7,378.2,63.2,376.2,63.2z"/>
		<path class="st0" d="M418.7,56.3c3,0,5.3,0.6,6.9,1.9c1.6,1.3,2.6,3,3.2,5.2c0.6,2.2,0.9,4.5,0.9,7.2v16c0,1.1-0.4,2-1.1,2.7
			c-0.7,0.7-1.6,1.1-2.7,1.1s-2-0.4-2.7-1.1c-0.7-0.7-1.1-1.6-1.1-2.7v-16c0-1.4-0.2-2.6-0.5-3.7c-0.3-1.1-0.9-2-1.8-2.7
			c-0.9-0.7-2.1-1-3.8-1c-1.6,0-2.9,0.3-4.1,1c-1.1,0.7-2,1.6-2.5,2.7c-0.6,1.1-0.8,2.4-0.8,3.7v16c0,1.1-0.4,2-1.1,2.7
			s-1.6,1.1-2.7,1.1c-1.1,0-2-0.4-2.7-1.1c-0.7-0.7-1.1-1.6-1.1-2.7V47.9c0-1.1,0.4-2,1.1-2.7c0.7-0.7,1.6-1.1,2.7-1.1
			c1.1,0,2,0.4,2.7,1.1c0.7,0.7,1.1,1.6,1.1,2.7v15.5l-0.9-0.2c0.4-0.7,0.9-1.5,1.6-2.3c0.7-0.8,1.5-1.6,2.4-2.3
			c1-0.7,2-1.3,3.2-1.7S417.4,56.3,418.7,56.3z"/>
		<path class="st0" d="M438.2,57.6h14.9c1,0,1.8,0.3,2.5,1c0.7,0.7,1,1.5,1,2.5c0,1-0.3,1.8-1,2.4c-0.7,0.6-1.5,1-2.5,1h-14.9
			c-1,0-1.8-0.3-2.5-1c-0.7-0.7-1-1.5-1-2.5c0-1,0.3-1.8,1-2.4C436.4,57.9,437.2,57.6,438.2,57.6z M444.9,49.8c1.1,0,2,0.4,2.7,1.1
			c0.7,0.7,1,1.6,1,2.7v27.9c0,0.6,0.1,1.1,0.3,1.4c0.2,0.4,0.5,0.6,0.9,0.8c0.4,0.2,0.8,0.3,1.3,0.3c0.5,0,1-0.1,1.4-0.3
			c0.4-0.2,0.9-0.3,1.4-0.3c0.6,0,1.1,0.3,1.6,0.8c0.5,0.5,0.7,1.3,0.7,2.3c0,1.2-0.6,2.1-1.9,2.9c-1.3,0.8-2.6,1.1-4.1,1.1
			c-0.9,0-1.8-0.1-2.9-0.2c-1.1-0.1-2.1-0.5-3-1.1s-1.7-1.4-2.4-2.6c-0.6-1.2-0.9-2.8-0.9-4.8V53.6c0-1.1,0.4-2,1.1-2.7
			C442.9,50.1,443.8,49.8,444.9,49.8z"/>
	</g>
</g>
</svg>
